<mxfile host="app.diagrams.net" modified="2022-03-24T06:27:59.239Z" agent="5.0 (Windows NT 10.0; Win64; x64) AppleWebKit/537.36 (KHTML, like Gecko) Chrome/99.0.4844.82 Safari/537.36" etag="EsQVXZSuGXYM6n56JgJp" version="17.2.1" type="github">
  <diagram id="VpUtNQdPr79DLIeU8Q9f" name="Page-1">
    <mxGraphModel dx="1292" dy="696" grid="1" gridSize="10" guides="1" tooltips="1" connect="1" arrows="1" fold="1" page="1" pageScale="1" pageWidth="827" pageHeight="1169" math="0" shadow="0">
      <root>
        <mxCell id="0" />
        <mxCell id="1" parent="0" />
        <mxCell id="_iyu4tjE-6IIQvP8cQ9B-1" value="默认基础色&lt;br&gt;" style="rounded=0;whiteSpace=wrap;html=1;" vertex="1" parent="1">
          <mxGeometry x="130" y="270" width="110" height="60" as="geometry" />
        </mxCell>
        <mxCell id="_iyu4tjE-6IIQvP8cQ9B-4" value="" style="rounded=0;orthogonalLoop=1;jettySize=auto;html=1;exitX=0;exitY=0.5;exitDx=0;exitDy=0;strokeWidth=2;edgeStyle=orthogonalEdgeStyle;startArrow=classic;startFill=1;endArrow=none;endFill=0;" edge="1" parent="1" source="_iyu4tjE-6IIQvP8cQ9B-3" target="_iyu4tjE-6IIQvP8cQ9B-1">
          <mxGeometry relative="1" as="geometry" />
        </mxCell>
        <mxCell id="_iyu4tjE-6IIQvP8cQ9B-3" value="增加了一些UI4.0的scss" style="rounded=0;whiteSpace=wrap;html=1;" vertex="1" parent="1">
          <mxGeometry x="360" y="270" width="80" height="60" as="geometry" />
        </mxCell>
        <mxCell id="_iyu4tjE-6IIQvP8cQ9B-10" style="edgeStyle=orthogonalEdgeStyle;rounded=0;orthogonalLoop=1;jettySize=auto;html=1;entryX=1;entryY=0.5;entryDx=0;entryDy=0;startArrow=classic;startFill=1;endArrow=none;endFill=0;strokeWidth=2;" edge="1" parent="1" source="_iyu4tjE-6IIQvP8cQ9B-6" target="_iyu4tjE-6IIQvP8cQ9B-3">
          <mxGeometry relative="1" as="geometry" />
        </mxCell>
        <mxCell id="_iyu4tjE-6IIQvP8cQ9B-6" value="财务人员UI4.0" style="rounded=0;whiteSpace=wrap;html=1;" vertex="1" parent="1">
          <mxGeometry x="580" y="270" width="120" height="60" as="geometry" />
        </mxCell>
        <mxCell id="_iyu4tjE-6IIQvP8cQ9B-13" style="edgeStyle=orthogonalEdgeStyle;rounded=0;orthogonalLoop=1;jettySize=auto;html=1;entryX=0.5;entryY=1;entryDx=0;entryDy=0;startArrow=classic;startFill=1;endArrow=none;endFill=0;strokeWidth=2;" edge="1" parent="1" source="_iyu4tjE-6IIQvP8cQ9B-12" target="_iyu4tjE-6IIQvP8cQ9B-3">
          <mxGeometry relative="1" as="geometry" />
        </mxCell>
        <mxCell id="_iyu4tjE-6IIQvP8cQ9B-12" value="" style="shape=image;verticalLabelPosition=bottom;labelBackgroundColor=default;verticalAlign=top;aspect=fixed;imageAspect=0;image=data:image/png,iVBORw0KGgoAAAANSUhEUgAAAx0AAAOaCAYAAAD9LD/zAAAAAXNSR0IArs4c6QAAAARnQU1BAACxjwv8YQUAAAAJcEhZcwAAEnQAABJ0Ad5mH3gAAP9bSURBVHhe7P17cB3XneB51sR29HZMz2w9u8oW3yQIgi+BAgiAIEWJkklQoh58UyJULZHU2DIhulq2bDZcksoGJfgpyZJcesHQW7IkG7D8LLm7Xc02PN2a6kF3xzgm+o/yxkZsrGfqn/1jdyMc89fu2XNOnrz3ZObvvm/ee/Li+8cnAGSefAAiifNVZt77e8PDw6oZmzf35258fK/atm27uM7X7nEI18zislpeXlZLc+fF9ZsvzKul5SU1f0FYBwAA2mxLgfSrfq1vU5/auHGjWr9+vVq7di3a6MCBA6q/v19cR3QAAACgSdLkPlRER96IDofoAAAAaCdpch8qoiNvRIdDdAAAALSTNLkPFdGRN6LDIToAAADaSZrchyr86Ji4OKtmZ7WLE+L6tWsn1JRZXzKtJoelcd1BdDhEBwAAQDtJk/tQBRwdh6dsREwddlEhRcfwpJpOrYsiJZzwIDocogMAAKCdpMl9qAKNDhsTU2rCfl05OmxgTE+qocTyITU5XSFSuoDocIgOAACAdpIm96EqwjMdlaIjWj59dii53F0hmS1FS3cRHQ7RAQAA0E7S5D5UBY4Od2vV1OHysqGz01Fs2PAI4xYrosMhOgAAANpJmtyHqleiI3VLFdHRuqJHx/Ann1L7n/m1uvmd34lGHnxB3A4AAKAYpMl9qHohOoTbrIiO1nU1OgZ3qUFpeQP2zf5SjA3f2OX31I5Dk1UNDO0T9w8AANBd0uQ+VMV/piN6hSt/uXeblbesW4gOp/7o2Kcuv7ukPvrejDoirq+PFBnNGn3oNfEYAAAA3SNN7kNV5Ojg1aty1b3o0I48qt5dWm4pPKR4aNaBud+Kx6jpwrxaWl5S8xeEdQAAAC2RJvehKnZ0xLdY+bdWRe/TEcZVDoPocBqKDsOFx9K7jzYVHlI8tEI6Rk1EBwAAyI00uQ9VqNFRvnVKkridyoVHeX04wWEQHU7D0WG0EB5SOLRCOkbClQW1vLygZvxlRAcAAMiNNLkPVRGudBQb0eE0FR1Gk+EhhUMrpGMkEB0AAKCjpMl9qIiOvBEdTtPRYcThMX9JXi+QwqEV0jFiM4vLOjh8Lj5K0TGjFrz1S3Pna+wjFSpx0NiPbszVeXVOrzs3t5RZ5u83Oge33licSa739ymtBwAAgZIm96EiOvJGdDitRcdn1Ru/WFYfvXNZXi+QwqEV0jESKl7pMJN5b7kdl4wKGxz+ZD89Jg6D0hgvYlLLEkGTudJyXs1f9bbJrNf7IDoAACgIaXIfKqIjb0SH03R0xMGhJ8PFvL1qWS1c8Za5iX8pDuyY1HbpMcK+oyscwjLvaoeJmcxVFX9f0jkDAICCkCb3oSI68kZ0OE1FR5PBYUjh0ArpGAkVoyN1q5QYFO6qRUrN6EjdTpVc5q5qCPst76s8JhMnAAAgcNLkPlRER96IDqfh6GghOAwpHFohHSOhleiQnsXwtRAdyasslZRv1yI+AAAoCmlyHyqiI29Eh9NQdIxdUvMtBIchhUMrpGMkNBsd4piUpqJDeFakBmmfAAAgVNLkPlRER96IDqf+6NinZj5oLTgMKRxaIR0jQYqHeqIjvsUpNdmfWfQio8noiLZLXe3Q57TgXWXx1xEdAAAUiTS5DxXRkTeiw6k/OrTBXWpQWt6AG57/jRgPzTgw91vxGGnll711gVBXdJSXRdtGEuubjQ7DhUdZOma8dQQHAAAFIk3uQ0V05I3ocBqKjjYYefAlMSCaMfrQa+IxAAAAukea3IeK6Mgb0eF0OjqMrSMH1I5Dky0ZGNon7hsAAKC7pMl9qIiOvBEdTjeiAwAAoHdJk/tQER15IzocogMAAKCdpMl9qMKPjomLs2p2Vrs4Ia63hifVtBkzO60mh4X1XUR0OEQHAABAO0mT+1AFHB2Hp2xsTB2eUFMVo2NITU7rddOTauLsNNHRTkQHAABAyKTJfagCjQ575WJKTdivK0eHuQoyfXbIfj5EdLQX0QEAABAyaXIfqiI801HtSkcZ0QEAAIAVRJrch4royBtXOgAAAJADaXIfKqIjb0QHAAAA4JEmxt1HdGRI//HajegAAABAHqSJcfcRHRn9/VtUv7tUtbkv+x+yHYgOAAAA5EGaGHcf0ZFBdAAAAKCopIlx9xEdGSs5OoY/+ZTa/8yv1c3v/E408uAL4nYAAAC9JX5IuwhCfZDchUYFU4ejcVFoyGPMGwYOZfbbeURHm+2b/aUYG76xy++pHYcmqxoY2ifuHwAAoBjSE/uQFeHVq4qN6GgzKTKaNfrQa+IxAAAAwpee2IeM6Mgb0dFmcTCYKx6tMPs4MPdb8Ri5urKglpcX1Iy0DgAAoG7piX3IiI68ER1tFkeHtK4R7dpPw4gOAADQFumJfciIjryt7Og4MqPefecr6tigsC5l8JPPqoXXHlVHhHW+oKKjmYAgOgAAQFukJ/YhIzrytrKjY/BTav4Xy+qjHz+p7qkSHiY4/uajZfWLFz+lBoX1PqIDAADASE/sQ0Z05I3bq2qERxQcH6m/ea52cBgdj44L82ppeVmHgnN1Xp3Ty2cWvWWWDgk7dknNX0jtww8NKTrSx1icEbavsh4AAKxA6Yl9yIiOvBEdRoXwaDQ4jM5Gx4xa0JP8hSvx1+fV/GIUHfbrTEDo9VeX1dLcefd1xAZKHArpbTKhEu2jND6zXp8T0QEAADIT+5ARHXkjOmKp8GgmOIyORkelKxcx6aqFWeauhkTLTLh4+0htY4IkHSmJMdIxAAAAMhP7kBEdeSM6fHF4fPijpoLD6Gh0aKXbqKSrC2IQCJHhR0hiG3dVw791qiQ7JhMnAABgBUtP7ENGdOSN6EjT4fHCh0vqR00Eh9Hp6Ih4ceDHR4WrEP7VC/N5+fYsTYiOxPqKolu9iA8AABBJT+xDRnTkjehos+5Eh5OOjArRYW/Lslc3TCik1qe2STzvUYdzc0up27cAAMDKlJ7Yh4zoyBvR0WYdjQ4dDwv+VYV0ZFR85sNcwdDL5/T4dFCI4ZK62uEfV6/31xEdAAAgkp7Yh4zoyBvR0WY3PP8bGwv7Zn/ZErMPsy/pGCU2KtxtVVb2qkbpmY/UOhsHUpCko6O0rMJx0usIDgAAYKUn9iELPzomLs6q2Vnt4oS4fujsdLQ+Nj2phoRx3UJ0tNnIgy+VrlK0atfpz4vHaAeuSAAAgHylJ/YhCzg6Dk/ZiJg6PKGmKkSHDY5EZLixAYUH0ZGDrSMH1I5Dky3Zcu2IuO/2iB4Q54FvAACQn/TEPmSBRsfwpJqenVIT9uvK0SGJrnxMq8lheX2n5Rcdmv0DtwKjI3jSLVQAAABtlZ7Yh6wIz3QQHRlER6jil7WVHi4HAABop/TEPmS9Fx3RMyDxVZLuIzoAAACQg/TEPmQ9Fh3uOZB6A6UTiA4AAADkID2xD1kPRUccHCvm1auIDgAAgBUsPbEPWY9Eh33wXI8J6LaqWC7RsaUUHVpBooM4AQAAaCd/Uh+6HoiOgIPD4EqHQ3QAAAC0U3piH7KCR0fgwWEQHQ7RAQAA0E7piX3IQo0OFxoVTB2OxpXerVwSyLMdRIdDdAAAALRTemIfsiJc6Sg2osMhOgAAANopPbEPGdGRN6LDIToAAADaKT2xDxnRkbf8osP9ByQ6ZMOffErtf+bX6uZ3ficaefAFcTsAAIBiSE/sQ0Z05I3ocDodHftmfynGhm/s8ntqx6HJqgaG9on7BwAA6K70xD5kREfeiA6n09EhRUazRh96TTyGb2ZxWS0vzojrAAAA2i89sQ8Z0ZE3osPpVnSYKx6tMPs4MPdb8Rg+ogMAAHRWemIfMqIjb0SH063okNY1ot79EB0AAKCz0hP7kBEdeTPRce2116qBgYEMoiN2ZEa9+85X1LFBYV3K4CefVQuvPaqOCOt8RAcAAOht6Yl9yIiOvBEdTtVxg59S879YVh/9+El1T5XwMMHxNx8tq1+8+Ck1KKz3dS06riyo5WX9ubWk5i8kx52bW/LWL6ulufOJ9cnttVTI2OOU1mf3DwAAVor0xD5kREfe4uiQ1hEdvhrhEQXHR+pvnqsdHEZXoiMVCVFg+GEwoxb8iLgwr5b0NgtX/K8rj89cTbGBQngAALAypSf2ISM68kZ0OHWNqxAejQaH0ZXouDqvziWWn1fzV4WrGZXW24hYUDOZcZoNkvS6WvsHAAC9Kz2xDxnRkTeiw6l3XDo8mgkOoyvRkboVSl4+oxZKt0dFytEQRURymZO+7cpDdAAAsBKlJ/YhIzryRnQ4dUeHEYfHhz9qKjiMEKMjfp6jdDtVxSsV5TAprTPRkbmSAgAAVq70xD5k4UfHX373P6j/8B+07/5ldv2j343W+f7V8+pselwXER1OQ9Fh6PB44cMl9aMmgsMIIzqieIgiQwqM6rdH2UiJQyPzvAcAAFjZ0hP7kAUcHS4ovvvoX6rvmpiQoiPDjQ0oPIgOp+HoaFFXoiN1q1O0rPwcRjpM4isf/tWM8lWQVHTEt16lrnbMLFZ4BgQAAPS49MQ+ZIFGxz3Pq3/zH76r/tJ+3Uh0rFVnv/1vdKzE23Yf0eGsiOjQQRHHRyQdBMnnOZbmZpJXOtLPbVR4MN0fU+kqCQAA6HXpiX3IivBMB9GRQXTUdsPzv7GxsG/2ly0x+zD7ko4BAADQPemJfch6LDrsFZL/oP7Nt8/K67uA6HA6HR0jD75UukrRql2nPy8eAwAAoHvSE/uQ9UB0uNAoPUhe5xWRTiE6nE5Hh7F15IDacWiyJVuuHRH3DQAA0F3piX3Ieu/2qujVrv6Nev4eeX2nER1ON6IDAACgd6Un9iHrveiIx4dyixXR4RAdAAAA7ZSe2IeM6Mgb0eEQHQAAAO2UntiHrNei46x6/l+Z26t49aqWER0AAAAhS0/sQxZqdLjQqOC7j0bjopfHTa4L6ZWrjMJGBwAAAEKWntiHrAhXOoqNKx0OV0QAAADaKT2xDxnRkTeiwyE6AAAA2ik9sQ8Z0ZE3osMhOgAAANopPbEPGdGRN6LDIToAAADaKT2xDxnRkbc4OgYGBjKIDgHRAQAAUI/0xD5kREfeiA4n1OgY/uRTav8zv1Y3v/M70ciDL4jbAQAAdFd6Yh8yoiNvJjr6+/vFdUSHoKHoGNylBqXlDdg3+0sxNnxjl99TOw5NVjUwtE/cPwAAQD7SE/uQER15Izqc9kfHPnX53SX10fdm1BFxfX2kyGjW6EOviccAAABov/TEPmRER96IDqf90aEdeVS9u7TcUnhI8dCsA3O/FY9R04V5tbS8pOYvCOsAAABE6Yl9yIiOvBEdTi7RYbjwWHr30abCQ4qHVkjHqInoAAAADUtP7ENGdOStQ9GR/g9bRZ/Pba+Z/W3pH4j2q78eGxvXk/8dasuWrfoPyGbVp5cZ/vHM2D1jJhJ26HMaUBs3bLJj7Tr9tdlW3F9pX+X9WHqbPXv2qu3b9f626P3pP5h9fZvt99s3MKA2bdXLtm3V25hz8LQQHlI4tEI6RsKVBbW8vKBm/GWFjo4ZtbC8rBauSOsAAACypIkxWhNwdLhtHbO/KDoG7Po91aLDxYJRig69nYmOTW2IjihitqgNG/X+dHRs1p8bfU76D67VZHhI4dAK6RgJRAcAAFjhpIlxt01cnFWzs9rFCXF92YSaMuO06bNDwvruyCU6sv/xosl7XapGh44EPfE34zLRsSkKBT8W/HHtiQ69vz1m3HYbGRs2btT726T6Npt9btZjoktz2e/ficNj/pK8XiCFQyukY8RmFpd1cPhcfJSiI5rAx+uX5s7X2EcqVOKgsR/dmKvz6pxed25uKbPM3290Dm69sTiTXC/xj+MsXDmv5q9K5+7FSen7jcaWtheOmTjvePvUGAAAUCzSxLhrDk/ZgJg67GKiRnSU4oToqKEg0RFd6dDR0denA0SPdcwPM/v9O0c+q974xbL66J3L8nqBFA6tkI6RUPFKh5lUe8vtuGRU2ODwJ+bpMXEElMZ4EZNaloiCzJUWFwP1hIdwpcOGQjps/O+79P36x3Tn6h0zsx+3HeEBAECxSRPjrhieVNOzU2rCfl1HdNjx5UAhOqoJOjrc7VX2mY4taqO5ymFvr9JjfZnvX4uDQ09ai3l7VXoynbpiYMektkuPEfYdXSkQlnmTeRMzmSsT0nmKstERLcsGU/J7EeIhcczsPoxMeAEAsGKV52Phi+5WCftB8lrRMaQmp+P1REdtoUZHv4uO8dSD5Oa2Kh0gm7fo8foH2SdFR5PBYUjh0ArpGAkVoyM9wZaCwlwdyKoZHamrDsllqVucEvwA8Jdnr1CkAyIZMqmAEL/f1HIXJsnzcYgOAAC08nwsfMWPjqGz02o2dVWE6Kgm8OgwL5lromOLjo5N+g+m+f7M53F4ZKKjheAwpHBohXSMhFaiI33LUloL0dH8LUtydCTO13zuh0Ld0ZH6OQEAAE95Pha+okdHOjKIjtoCj474SocJjehKhz43HRwmNjZt7lObzBWP+Pseu6TmWwgOQwqHVkjHSGg2OipN1H1NRUertyxViA57/tH5mv0n1lf4XpLnVWm/AAAgUp6Pha/Y0WEfHp+eVEOlZURHbaFGh9sm8z4d5vYqHSTmpXPNg+UbS9GxT8180FpwGFI4tEI6RoI04a4nOtzX6YCYWfQio8noiLbLhsFC6djVpM+zzBxnaU7vR4wsc6uUt9wt8/djYyjz/SxUDy8AAFaM8nwsfAWODvvqVtNqcthbRnTUIejo0PuLHyTX22/cGD9IvsXGh3klqz7/SsfgLjWY+Dk07obnfyPGQzMOzP1WPEZaNJn2JtR1RUd5mf98Q2J9s9FhuPAoS4VCNd622SsaQpDE3++VOD4iUriUf1ZO01dkAADoNeX5WPiKGx3+S+RWEkJ8EB1mnN6mkSsddn86NMpvDqjHOuaHmf3+mzfy4EtiQDRj9KHXxGOsWGJMVVkOAAAaUJ6Pha/AVzpEXOmoLejocFc6XHSYKx2l6Mh8z+2zdeSA2nFosiUDQ/vEfa9k4hUVg+gAAKANyvOx8IUaHS40Kpg6LG1jEB21FTQ6zAPlxqbE941wVXkQnOgAAKANyvOx8BXhSkexER1mnN6m+eiI3pE8Do6Nie8bIYqfw5Ce0bCIDgAA2qA8Hwsf0ZE3osOM09u0Kzo22G30tgAAACtaeT4WPqIjb0SHGae3qT863P640gEAAFBFeT4WPqIjb0SHGae3aSw6tpeio89Eh/s+4/DYpMeazzeb9/DQkj8LAACAlaA8Hwsf0ZE3osOM09s0Fx0bE9FhmNjo0+ui6DCIDgAAsBKV52PhIzryRnSYcXqbRqJjeyo6zA8wLX4Z3XJ8AAAArCTl+Vj4zFyT6MgT0WHG6W2ai47o9irzh7QUGl5wGJ2IjuFto+rMnnvVQzc/or5++0vqrTM/U6+f/rF6/tg79muzTtoOAAAgP+X5WPiIjrwRHWac3qb+6Niro0Pvz48O/QP0r250KjrGd+5Xlw5cVq+e+kC9f/cvSt44/RP14vH31FN3zKt37vq5XfbCse+qI8PHxP0AAAC0X3k+Fj6iI29Ehxmnt2k+OszD4tEf1Oz3nU90XH/tAfW5Tzym3j7zYSk0nr7zFXXfvk+r67Zmf/53j5+zYz5z03RmHQAAQD7K87HwER15IzrMOL1NfdEx4EWH3l8cHTpA7H4y33f7HRk+ruZOfL8UG5cPXlETQ7eJY31vnv6peuXkD8R1AAAA7Veej4WP6Mgb0WHG6W3aEx2G3i4n9+57oBQbTxx5rqHbpeZPLqpvH31LXAcAANB+8dyoCIiOvBEdZpzeprno6BOiw9DbttlXbnu+FBzmdilpTCUP3PBZu930oSfE9QAAAO3nz41CR3Tkjegw4/Q2jUbHllJ06HNLR4fd1sn8LBr38Ce+VAqO46N3i2MqGdo2Yq9ymG3v2nOfOKYdZhaX1fLVeXVOWJdxYV4tLS+rhSvCOgAA0CO8uVHwwo+OiYuzanZWuziRXX94KlqXMaUm0mO7hOgw4/Q2taNjwIuOnano0OvMfmJ2W/889OdNMi93GwfH5PgFcUwlh647or5156t228cOf0Mc0y5EBwAASPLmRsELODpcUEwdnlBTJiQqRse0mhxOLQ8I0WHG6W1CjY4vHpq10WDiIb3OvGRuelns4o0Pl2KFV60CAACd582NghdodAxPqunS1QqiI6OlP3RER8JLJ9634WBeIje97uB1R+yrUj0y8VX7ClYX9l9SX7rlSfWdkwt2m2/ePqdOjk1mtgMAAMifNzcKXqDRkUB0ZLT0h47oSHj81mdtQJhXq5LW37b7hPrCwRn1tdtesGZuedq+M/nRkTPi+FrsbVKLM9HH5cjS3Hm97ryav5pelt3OfH5ubkmPWVLzF8rro2ULasZ8bW+v8tZfWYjWuduu4mOkb7/yz0laX5LaT/q2r+hcvPXuvNPfY/J7qLYOAABkeXOj4PVCdJhnOHzhPM9hEB1mnN4m1Oi4dfiojQ5zRWP39jFxTDvFE/vShN4GgbQsOen2oyPzdToyxOjQ4704SERK/LUfD3obOTpm1IJ/riYWFsvbRd9feb92vDvP9Pdwbm6hdI7V1gEAAIk3NwpewaMjY0hNTpvwCOfqB9FhxultQo0OI37JW3MlQ1rfTunJden/8AvL/Ksdme1KYZEdK0dHMmLS8ZA9rwrS+653nfA91bcOAADIvLlR8HotOjT7PMismj47JK/vMKLDjNPbhBwdRhweLx5/Tw3on4M0ph0qRUdywl1HdGil25jSr2olRod/9cFIXbGw2+h9VYyGMnsuZmw6Usxxqr3CVnzFJXMuNdYBAACBNzcKXg9GR8Pj80V0mHF6m9Cjw7h99wn13NE31aunPlCHh+4Qx7SqndFRmqi3Izpipcl/rfiIzjERH2bbatHhlJ/5yAZGtXUAAMDnzY2C14PRUXqpXWFdFxAdZpzepgjRYYxsH7fvLP72mQ/VsdG71D1771efP/hl+wD5/fsvqeuvPSBuV6/2RYeJBhMGwvatRIclnVMF/r6r3l6VVu341dYBAICINzcKXo9Fh7u1KpSrHEbBosNM7nV06PWdiQ7N7ceGRyk69LguRYdhXpnq2aNv2NutzG1XMRMeL5/4nn34XNquHu2Jjmh94gqDP9lvIjpmFv31yeMnHjrX+17wzzW1b3ueiWPp49jz1Pv0HjhPHr/aOgAAIPPmRsELNTpcaFQQX8UYOjtdcV0oAo4OQ2/rlKMjWp6IBBMdelkpFDoQHebzTkfH8LZRe1XDxMbZ8fP2466tQ4kxBwYP2eX+ska0IzqyE/vUsqaiw2xf5h87HR2Jl8vN7De7r1JYmFDKLK+1DgAAyLy5UfBCjY7eEV50GEJ4+NFhJvq5RkeFqyZmH92KjqMjp+1D5ObN/3YM7LS3WZm4MG8KmB57+eDj6vjo3ZnlAAAAnePNjYJHdOQtzOgwStERiaPDrDMT/cqRkDxe69FR3l+3ouOmXRPq9VM/slc54mU3Dh600TG6Y29irPHMna+1dLUDAACgdd7cKHhER97CjQ4jER06EuLJvZ7Q1xcJOjrSkZCODv3RfJ15RkTanx5r97e9sw+SmwfH07dSmWc45k58Xw30b0uMNVc4To3dk1gGAADQed7cKHhER97Cjg5P1UjQE/y6I0GIDj9O0tER7bO8v/F4f3rcpg5FhwkOc2uV+Xxo20jpPTukW6sAAADC4M2Ngkd05K240eFHgouDKBCi45kIiCJhn9rhIiGKDrderxvQy+KX4Y32F42z0SFcPbH7Gzf7uzaKDhcnZnme0RFHhnlH8jdP/1S9duqH6tbhO8WxAAAAYfDmRsEjOvJWyOgoX5lwkaAn+KU4iK9KuNuxbCTscJHgrkyY9WbdwMA2u9yO03ESX8GoGR16fyZYTHSYdXlHxw2DN6vz10+pizc+rCb33q92bx8TxwEAAITDmxsFj+jIW2Gio0RP5k0UDA5el4mORCAYOgZ27Rqyt2GZZRvWbyw/SO7Wx/vcNThUNTrS+zNfb9iwyY7NOzoAAACKx5sbBY/oyFthosNM/k0wmKsV5jYpM9EvRYJe5weCGR9HgllvrmiYbdetXW+3tft04+N9mtusEtHh1kf7jPZnrojE+zNRsm7dBrst0QEAAJDmzY2CR3TkLezoMJP2mLfMhMAuc6WjFAl+IETHi6Oj6Ssdmf1Ft2tdV7rSMcCVDgAAgIq8uVHwiI68hRsdfnBoZmJvH/zWzOf+q0hVi47mnukQ9qfHmKshe/X+dppnOtzVE7O+29Fh3qn8zJ571UM3P6K+fvtL6q0zP1Ovn/6xev7YO/Zrs07aDgAAID/e3Ch4REfewoyORHDo7d3EPg4E83nm1ab0mFIkmEjR+7HR0cirV4nREZ1T+sH0Tj5IXsn4zv3q0oHL6tVTH9hXt4q9cfon9iV2n7pjXr1z18/tsheOfVcdGT4m7gcAAKD9vLlR8IiOvIUXHaXYMPS2jpnYmyCIJ/iJl8wVosPsKxET+vO636fD35c5JzNeR4cZG71kbhQnmzZGx433EY8tn3e8zOynfa6/9oD63CceU2+f+bAUGk/f+Yq6b9+n1XVbsz//u8fP2TGfuWk6sw4AACAf3twoeERH3gKODr2dx15pcJFgxplIKL05oIkO8epEOSbMdpWiw+5PeLNBe2y9LtqXi444Ymx0RLdrmeWdio4jw8ftO5HHsXH54JW63iTQvL/HKyd/IK4DAABoP29uFLzwo2Pi4qyandUuTojrIxNqyowpmVIT4rjOK1B0mOcwKkRChejwx5lo2LhhU/lB8jg6zDi9zZgYHdE+zJg4OqKI8a6c6HGdio579z1Qio0njjzX0O1S8ycX1bePviWuAwAAaD9vbhS8gKPj8JQNiKnDLigqRMfQ2Wk3LrsuBESHGae3CT06vnLb86XgMLdLSWMqid/RfPrQE+J6AACA9vPmRsELNDqGJ9V06WpFleiw48INDoPoMOP0NiFHx8Of+FIpOI6P3i2OqWRo24i9ymG2vWvPfeIYAACA9vPmRsELNDoSKkeHvfVqelINpZaHhOgw4/Q2oUaHebnbODgmxy+IYyo5dN0R9a07X7XbPnb4G+KY3nFezV9dVktz56OvL8yrpeVltXAlPQ4AAHSGNzcKXpGjY0hNTkfLS899ONNnh1Jju4foMOP0NqFGxxcPzdpoMPGQXmdeMje9LHbxxodLsbIyXrWK6AAAICze3Ch4RY4Ot1xL3F7lngUJJTyIDjNObxNqdLx04n0bDuYlctPrDl53xL4q1SMTX7WvYHVh/yX1pVueVN85uWC3+ebtc+rk2GRmu96Uig4AANBl3twoeD0QHYHfdkV0mHF6m1Cj4/Fbn7UBYV6tSlp/2+4T6gsHZ9TXbnvBmrnlafvO5EdHzojjexfRAQBAWLy5UfCKHB3l26uSy4mO6oiOhFuHj9roMFc0dm8fE8e008zislpenFHn5pbU8rL+3FpQM5mxM2qhtN5YUvMX/PVxBMzYj2aMvdXpykK0P/vRbXt1Xp3T2ySO6Zb5x7TnFq/XkrdOSbdXxecUrfO3lfaR3H/6+0nxz9/QPzN/ffLn569Pn4t/nGrrAAAoGm9uFLwiR0eluKgcI91AdJhxeptQo8OIX/LWXMmQ1rdTPPEuXzFwE2F/Uu2el0hcVXCT8PIkPp5ApybO8WS9tD8vXlLLEvvXx1zIHC87YZejIy01VotjqzQms39PZt/6fL1to5+hH2rl9enjnJtbKO2n2joAAIrHmxsFr9jREb9krv/8xpB9345pNTmcGtslRIcZp7cJOTqMODxePP6eGtA/B2lMO9iJb/oqg52AlyfRmQm6uFyIFSO1LyO6KiAsE652lEVhko6ceqIj8z3ascnjS2FSInwPJQ3GTn3rAAAoIm9uFLxQo8OFRgWJB8ddeJTXh/Nu5AbRYcbpbUKPDuP23SfUc0ffVK+e+kAdHrpDHNMqMSgSk+xocpy8tckx40qT+QqT6ErRkQoMMTrshF6fn6fh6LDHTy23y5L7jVULBHF94mcgKB1LiJZq6wAAKBxvbhS8UKOjdxAdZpzepgjRYYxsH7fvLP72mQ/VsdG71D1771efP/hl+wD5/fsvqeuvPSBuV69Qo8OeV/qWJj1Bbyw60ts4ifNuRLS/RHzUuS/7/VUIjGrrAAAoDm9uFDyiI29EhxmntylKdBjmlamePfqGvd3K3HYVM+Hx8onv2YfPpe3qUTs6KozJLG9ndEix0Hh0VDrv6rdE1ZY414b2VSGCaq4DAKAIvLlR8IiOvBEdZpzepgjRMbxt1F7VMLFxdvy8/bhr61BizIHBQ3a5v6wR9URHNLFOBYUd40+22xkd2X3Z82wgOuz+Kl45iLZNn8PMYiq04vX6e/BjIH3+0bn5x9IBYX+m+jiL/jH8sKi2DgCAIvLmRsEjOvJGdJhxepvQo+PoyGn7ELl5878dAzvtbVYmLsybAqbHXj74uDo+endmeT3qig7DhUd0G1B6km1kQ8FqKjq01PEWrqQn5VWiI3Ou/n6S2/vrMpHjRYc/Ln3upfHemFJYpI5R7fgEBwAA3SFNjNEaosOM09uEHB037ZpQr5/6kb3KES+7cfCgjY7RHXsTY41n7nytpasdAAAAK5k0MUZrOhQd7Tc+vldHwnZxna9b49rJPDievpXKPMMxd+L7aqB/W2KsucJxauyexDKgs0zY+6QxAACES5oYozVEhxNydJjgMLdWmc+Hto2U3rNDurUK6D6iAwBQbNLEGK0hOpyQoyOODPOO5G+e/ql67dQP1a3Dd4pjge4jOgAAhnfrefB4kDxvRIcTcnTcMHizOn/9lLp448Nqcu/9avf2MXEcEIK+FGkMAGAlkCb3oSI68kZ0OCFHB1AkRAcAICJN7kNFdOSN6HCIDqA9+rcMJEhjAAArgTS5DxXRkTeiwyE6gHbJ/kMOAFiJ0r8PQkZ05I3ocIgOoF2y/5ADAFai9O+DkIUfHRMXZ9XsrHZxIrVuQk2Z5ZVMT6qhxPjuIDqcIkfH8LZRdWbPveqhmx9RX7/9JfXWmZ+p10//WD1/7B37tVknbQfkI/sPOQBgJUr/PghZwNFxeMrGw9RhFxeZ6KgkGj99dkhY13lEh1PE6BjfuV9dOnBZvXrqA/uSurE3Tv/Evq/HU3fMq3fu+rld9sKx76ojw8fE/QDtlf2HHACwEqV/H4Qs0OgYnlTTs1Nqwn7dWHQMnZ3WsTKtJofl9Z1GdDhFio7rrz2gPveJx9TbZz4shcbTd76i7tv3aXXd1uzP/+7xc3bMZ26azqwD2i/7DzkAYCVK/z4IWRGe6WgkOhq9KpI/osMpSnQcGT6u5k58vxQblw9eqeudyc2bCr5y8gfiOqC9sv+QAwBWovTvg5D1VnSEdpXDIDqcIkTHvfseKMXGE0eea+h2qfmTi+rbR98S1wHtlf2HHACwEqV/H4Ssl6IjvKscBtHhhB4dX7nt+VJwmNulpDGVPHDDZ+1204eeENcD7ZX9hxwAsBKlfx+ErHeiI8SrHAbR4YQcHQ9/4kul4Dg+erc4ppKhbSP2KofZ9q4994ljarowr5aWl9T8BWFdEM6r+avLanlxJrn8yoJaXtbLgz73XpT9hxwAsBKlfx+ErFeiI8yrHAbR4YQaHeblbuPgmBy/II6p5NB1R9S37nzVbvvY4W+IY+pSxOgI/px7WfYfcgDASpT+fRCy3oiOUK9yGESHE2p0fPHQrI0GEw/pdeYlc9PLYhdvfLgUKw29apW9OrCgZvxlRZzAS98HOiT7DzkAYCVK/z4IWS9ER7hXOQyiwwk1Ol468b4NB/MSuel1B687Yl+V6pGJr9pXsLqw/5L60i1Pqu+cXLDbfPP2OXVybDKzXVVEB1qW/YccALASpX8fhCzU6HAhUcHU4fLY6CpHcllIiA4n1Oh4/NZnbUCYV6uS1t+2+4T6wsEZ9bXbXrBmbnnavjP50ZEz4vhqZhbN8w8+N2kvRceMWvDWL82dr7GPVKjEIWA/ujFX59U5ve7c3FJmmb/f6BzceiPx/EZ0e1V8Ppnv4+qiWvTWl0Xfz8IVf5mTPl76nPzvIbU+fXx//9XWAQDQW6TJfaiKcKWj2IgOJ9TouHX4qI0Oc0Vj9/YxcUxbVbzSYSbJ3nI7LhkVdkLtx0B6TDxRL43xIia1LBEImSst6Wc4ktFhpb4PGzViOKS+VysdI3r/i+Vto0BKnY9bnzmOPka8n2rrAADoPdLkPlRER96IDifU6DDil7w1VzKk9W0lTcRddCQnyKmJvh2TnsCnxgj7jibwwrLUlYPMVYrEvmpHRxQS2UjK7NfIRI6vytURLRNeda4DAKD3SJP7UBEdeSM6nJCjw4jD48Xj76mB/q3imLaoGB3pSbgUFO6qRUrN6EhdgUgui44j7bex6EhHRjZCfDYQzDHSkSDGlccFmvgyvdXWAQDQc6TJfaiIjrwRHU7o0WHcvvuEeu7om+rVUx+ow0N3iGNa1kp0pOIho4XoqH4bUn3RkThH83nNqw5e8MRja0VHzB6/QmBUWwcAQM+QJvehIjryRnQ4RYgOY2T7uH1n8bfPfKiOjd6l7tl7v/r8wS/bB8jv339JXX/tAXG7ukmT9XqiQxyTIuy7dnTUc1tSndFhx0XnaPZZ9/MUiX1Vv70qSTivutYBANALpMl9qIiOvBEdTlGiwzCvTPXs0Tfs7VbmtqvYl3V4vHziffvwubRdXaR4qCc63NfpgJhZ9Cb+TUZHtF1qoq/PaSF17NrREe17aU5vK51HvCyxby21r2is//PQx3cPkie+39R5VVvXS8w/KD5pDABgJZAm96EiOvJGdDhFiI7hbaP2qoaJjbPj5+3HXVuHEmMODB6yy/1ljSo9z+BNwmtHR3lZtG2kVgjUFR2GC4+yGhP4CtERfS/ZyX46OqJnL6Rj+ePLY+L9lX92yeW11vWWzSnSGABA75Mm96EiOvJGdDihR8fRkdP2IXLz5n87Bnba26xMXJg3BUyPvXzwcXV89O7McmhiQKGd+nRo+KQxAICVQJrch4royBvR4YQcHTftmlCvn/qRvcoRL7tx8KCNjtEdexNjjWfufK3lqx29SryKgrbq69Ox4ZHGAABWAmlyHyqiI29EhxNydJgHx9O3UplnOOZOfF8N9G9LjDVXOE6N3ZNYhlgjD4GjWZt0aPikMQCAlUCa3IeK6Mgb0eGEHB0mOMytVebzoW0jpffskG6tgix+nqJ3n6MIR1+KNAYAsBJIk/tQER15IzqckKMjjgzzjuRvnv6peu3UD9Wtw3eKY4Fu69P/ePukMQCAlSA9sQ9Z+NExcXFWzc5qFyfE9WuHJ9W0We+ZPjskj+0CosMJOTpuGLxZnb9+Sl288WE1ufd+tXv7mDgOCEK//sfbJ40BAKwA5ndAUQQcHYenbEBMHZ5QUyYmpOgojckuCyU8iA4n5OgACmXLQJI0BgCwAkiT+1AFGh326sWUmrBfV44OexVkelINJZYPqcnpCpHSBUSHQ3QAAAC0kzS5D1URnumoER2lOIlF47nS0SKiAwAAIGTS5D5UxY6O0rrZaTU57H2dufrRPUSHU+ToMO9UfmbPveqhmx9RX7/9JfXWmZ+p10//WD1/7B37tVknbQcAAJAfaXIfqqJHR6T0sHmNcd1AdDhFjI7xnfvVpQOX1aunPrCvbhV74/RP7EvsPnXHvHrnrp/bZS8c+646MnxM3A8AAED7SZP7UPXKlQ53i1XplaziKx/dR3Q4RYqO6689oD73icfU22c+LIXG03e+ou7b92l13dbsz//u8XN2zGdums6sAwAAyIc0uQ9VkaPDPTBe4ZmOUG6xIjqcokTHkeHj9p3I49i4fPBKXW8SaN7f45WTPxDXAQAAtJ80uQ9VkaOjUlxUipHuIDqcIkTHvfseKMXGE0eea+h2qfmTi+rbR98S1wEAALSfNLkPVbFvr4qf5ZDepyOUZzuIDif06PjKbc+XgsPcLiWNqSR+R/PpQ0+I6wEAANpPmtyHKtTocKFRgR8ZiYfIHd6RvA1WUnQ8/IkvlYLj+Ojd4phKhraN2KscZtu79twnjqnpwrxaWl5S8xeEdQAAACJpch+qIlzpKDaiwwk1OszL3cbBMTl+QRxTyaHrjqhv3fmq3faxw98Qx9SF6AAAAA2TJvehIjryRnQ4oUbHFw/N2mgw8ZBeZ14yN70sdvHGh0ux0tCrVl1ZUMvLC2rGX0Z0AACAhkmT+1ARHXkjOpxQo+OlE+/bcDAvkZted/C6I/ZVqR6Z+Kp9BasL+y+pL93ypPrOyQW7zTdvn1MnxyYz21VFdAAAgLaQJvehIjryRnQ4oUbH47c+awPCvFqVtP623SfUFw7OqK/d9oI1c8vT9p3Jj46cEcdXM7O4rIPD5+KjFB0zasFbvzR3vsY+UqESB4396MZcnVfn9Lpzc0uZZf5+o3Nw643FmeR6f5/S+lh6P+ljpffjrU//fBaulLertg4AgJVJmtyHiujIG9HhhBodtw4ftdFhrmjs3j4mjmmrilc6zGTaW27HJaPCTrz9yX56TDyhL43xIia1LBE0mSst59X8VW+bzHq9DzE6on2Xg0DvZ7EcFVH4pI7j1tt1fqDo7yXeT7V1AACsXNLkPlRER96IDifU6DDil7w1VzKk9W1lw0COjuREOpr4l+LAjkltlx4j7Dua6AvLUlcYMldV/H1J5yzJxIkvHSRJmaCqcx0AACuXNLkPFdGRN6LDCTk6jDg8Xjz+nhro3yqOaYuK0ZGerEtB4a5apNSMjtQtTsll0XGk/Zb3VR6TiZOU0m1Q6UgQo8njwitzy1itdQAArFjS5D5UREfeiA4n9Ogwbt99Qj139E316qkP1OGhO8QxLWslOlLxkNFCdNR3u1L5dq3q8eGFTOIWrSrRESvFlRAY1dYBALDiSJP7UBEdeSM6nCJEhzGyfdy+s/jbZz5Ux0bvUvfsvV99/uCX7QPk9++/pK6/9oC4Xd2ajQ5xTEpT0dH47UvSPkWJ86l+e1VS6nuvex0AACuJNLkPFdGRN6LDKUp0GOaVqZ49+oa93crcdhX7sg6Pl0+8bx8+l7arixQP9URHfPUgNdmfWfQio8noiK8gJIJAn9NCfGy93l/nb28/j4/pb2Okzica63+f+ntyD5Invo/U915tHQAAK5c0uQ8V0ZE3osMpQnQMbxu1VzVMbJwdP28/7to6lBhzYPCQXe4va1TpuQdvsl47OsrLom0jifXNRofhwqPM2096nbdtOjoSL5ebOpfy+PKYclj42yW/r2rrAABYuaTJfaiIjrwRHU7o0XF05LR9iNy8+d+OgZ32NisTF+ZNAdNjLx98XB0fvTuzHAAAoHOkyX2oiI68ER1OyNFx064J9fqpH9mrHPGyGwcP2ugY3bE3MdZ45s7XWr7aAQAA0Bppch+q8KNj4uKsmp3VLk6I69cOT6ppsz42PamGpHFdQnQ4IUeHeXA8fSuVeYZj7sT31UD/tsRYc4Xj1Ng9iWUAAACdJ03uQxVwdByeshExdXhCTVWKjtKY8rIoUqbUhD+ui4gOJ+ToMMFhbq0ynw9tGym9Z4d0axUAAEAYpMl9qAKNDnv1Ig6HStERLZ8+O5Rc7q58ZJZ3CdHhhBwdcWSYdyR/8/RP1WunfqhuHb5THAsAABAGaXIfqiI801EhOlxc+Fc5IkNqcrrClZEuIDqckKPjhsGb1fnrp9TFGx9Wk3vvV7u3j4njAAAAwiFN7kNV4OiodKUjjo5Anu0gOpyQowMAAKB4pMl9qIocHfHzG9Nqcri8bOjsdFAPlBMdDtEBAADQTtLkPlTFjg6j9OpWzvTZCW6vageiAwAAIGTS5D5UxY+OrEq3XXUH0eEUOTrMO5Wf2XOveujmR9TXb39JvXXmZ+r10z9Wzx97x35t1knbAQAAIEuaGHdfg9FhX0aXl8xtGdGhz2XnfnXpwGX16qkP7Ktbxd44/RP7ErtP3TGv3rnr53bZC8e+q44MHxP3AwAAgDJpYtx99UeH9IxHt3UoOqTLWBX0xfR2nn69bkv/Vn2yA3bcnrFxPfnfobZs2ar6Nm3W+lWfHmfY7d3+4nH9mwfUxg2b1CY91iw3+zHbmv2a/Y/5+0vtx4wx25tt9uzZq7Zv26nPRe9vY58dZ5bb/ZTobXN0/bUH1Oc+8Zh6+8yHpdB4+s5X1H37Pq2u25r9+d89fs6O+cxN05l1QPv5fxfy//sAAEC7SRPj7nChUUH8Mrmlh8ZjgTzH4SM6zDi9TVGi48jwcftO5HFsXD54pa43CTTv7/HKyR+I64D28v8u5Pv3AQCAPEgTY7SG6DDj9DZFiI579z1Qio0njjzX0O1S8ycX1bePviWuA9rL/7uQ398HAEDo0r8PQmbmmnr+F/SD5MVGdJhxepvQo+Mrtz1fCg5zu5Q0ppL4Hc2nDz0hrgfay/+7kM/fBwBAEaR/H4SM6Mgb0WHG6W1Cjo6HP/GlUnAcH71bHFPJ0LYRe5XDbHvXnvvEMUB7+X8X2v/3AQBQFOnfByEjOvJGdJhxeptQo8O83G0cHJPjF8QxlRy67oj61p2v2m0fO/wNcUzQLsyrpeVltXBFWOeZWVxWy1fn1TlhHbrB/7vQ3r8PAIAiSf8+CBnRkTeiw4zT24QaHV88NGujwcRDep15ydz0stjFGx8uxUphX7WK6Cgo/+9Ce/8+AACKJP37IGRER96IDjNObxNqdLx04n0bDuYlctPrDl53xL4q1SMTX7WvYHVh/yX1pVueVN85uWC3+ebtc+rk2GRmu6quLKjl5QU1I63ruvNq/uqyWpo7L6xDOPy/C+39+wAAKJL074OQER15IzrMOL1NqNHx+K3P2oAwr1Ylrb9t9wn1hYMz6mu3vWDN3PK0fWfyoyNnxPE1ER1omf93ob1/HwAARZL+fRAyoiNvAUWHG2sn+1lRdJiJfzS+HB0DLjo0PS6KBc3ttxQdJhJ0dJhxZnkUHS4W9Hg5OqL9RNERbRNFhx5n9idGh9mmfW4dPmqjw1zR2L19TBzTLvY2pWWfiw97m9OSmr8S3e7kR0l6m8StUPF2F2bUgjcmHQ0V91HaPv48OS7ej91+cSaxzyievPHp26/qPLekKHrK+3XnFq+vcsxqP6eqP8NCiv8u5PN3AgBQFOnfByEjOvLWoehoQDzZT0lGR3/F6LDj7b6iUDCR0Fh06P31Jfdlg8NuE+0vGR2b7XK7Hys+fvvEL3lrrmRI69tKutIRT/iFifuCP0m323oT8VIoePtLjTk3t5Tcr14vRoddL1/pSEeH3WcqCKKJvXcedZxbWvY4C8nvI32ui9H3Ve17rPr9AwBQaPHcqAiIjryFFx2xeNLvmEm9jYREdGwvR4cNBR0ULhTMHyCzTSI6NvrR4fZn/qDpbcbG9pT3F+/LnUscHFF0jKvt2+Po0PtLREd87PaLw+PF4++pgf6t4pi2sBNvOTpqT4ajqwbJaEhvlwyH9EQ+oanoSJ1DSePnllRtXaVjRqp9j1W/fwAACi2e0BcB0ZG3AkSHCQk9sdd/ICpHR3TFoVJ0mCsTUXTocTo64ogo7U9vVz06NBMWWjk6tnQ0Oozbd59Qzx19U7166gN1eOgOcUzLKkZHhSsAbvIu3h4kbpeavJe2F/af2b6O6LDbpM7fMeOSx61xbmn2Z2POVfr5yMcsr6/2PVZYBwBAocUT+iIgOvIWYHSYyX4UGj7zB2HLlmjib8bt8SOh7uiIrnTUHx1GHB1ReETRocfpz5PR4X8P+RnZPm7fWfztMx+qY6N3qXv23q8+f/DL9gHy+/dfUtdfe0Dcrm4NRIed7CeWS1cT6pzYlyb03vjM9l2ODie6lcqcqztOlWMmSN9jPesAACgkf1IfOqIjbx2KjngC3wQbEmZiH0dHtL89e+JI2OKiIwqPODrisIiiY6f+3HsGw62LokOP18uS0eH2Zc+hnuiI1pe/1/jzfJhXpnr26Bv2ditz21Xsyzo8Xj7xvn34XNquLnVHh3RLUQvRIa3LbF9HdFS81anVc0vz91fpmJIGvv/Civ/ulP8OAQBWImlyH6povhdmdEyoqdlZNeuZOlzPuGk1OSyN646CR8e2bHS4YyaiY7v/ErfVosPtLxEdZnwcHf1CdPSV1pXOufR9t9fwtlF7VcPExtnx8/bjrq1DiTEHBg/Z5f6yhkiT8Ton6NGVj8Ym9jOLfuCk9ilsnwwMeVnFB8n9B7brOLdoP/H56XXuwfBobDI0sscsj6/2PVb9/gur/Hcnz78PAIDQSZP7UIUaHVFI+JExdHY6Gx7Dk2paL5u9OFFaNnExrPAIPzocc5ImCOLJfSI6bCT4oVCOjnEpOvTyRHTobcbGxjL7848dM8e10aHHmT+UnYqOoyOn7UPk5s3/dgzstLdZmbgwbwqYHnv54OPq+OjdmeX1iuMheftQeoIeL4/Hmgl441cTyseKJCbc0vbeMRP7SIVI+RYoJ7W+nnPLRIde5+8zfWUjfcx6vseq339hxX8P8vv7AAAoAmlyH6pQo0PirmikA2N6Ug0lxg2pyenkuG4qRHT0mY92Yh/9oTDhEEeCWbZpU3TFIYqO+JjlKx3lV6/KRke0v75EdGxy0WGPWzp2OTqi4/YnosOMKZ9zfA7tcdOuCfX6qR/ZqxzxshsHD9roGN2xNzHWeObO11q72gG0JP57kM/fBwBAUaQn9iErcnREX0+fHfLGaIen3G1WU2rCX94lnYmOeFJeTXqb9MRFjylHR58a1ZGwdWs5OqJQcBMcM86FRT3RYba1+ytFjB8dZn9lcnSY45lzzod5cDx9K5V5hmPuxPfVQP+2xFhzhePU2D2JZUBHeX9f8vx7AQAIXTyhL4ICRYe7laoUGe7r7C1YOjZseIRxi1U40RFLb6v1mY96nZncmxAwUTA6OqYGdHSYuNjoRUc0Vv/hccb2jOuY2GE/37DRjCtHR795aFyPj/dnIibaX58QMdE5jOnoMHFiPt+g/1DG+yuNMePbzASHubXKfD60baT0nh3SrVVA17m/KyXSGADACqDnRoVRlOhwt0z5IZGIjtQtVSsvOvR/zIbJ+zAhYKJgpBQd/VF06GUVo2Prdvt5OTrMsxyai47k/lzEiPuL3kTQjtPL/YgpjTHj2yyODPOO5G+e/ql67dQP1a3Dd4pjga7z/z7k9HcCAFAE5ndAURQhOuLgkB8inzos3Ga10qLDTMzrtbFP/8c2/8FTzDozgbFXJvTno3ryv3XbdhsO/vYxM65P/yEaM7dXbd+ptx2wkRDvK4oJHR1unzZOtlfe36bN0TZm3Lbt0ZWT9Rs2lvZnxOea/v5bdcPgzer89VPq4o0Pq8m996vd28fEcUAIEn9vNGkMAGAlkCb3oQo/OqJXoxKe3fBeKjcRI1rpNitvWbd0JDrW68l+XTYY+j+0wEzmbUi4/3u6Z3yv2r5jZ+nqhFlnJjgb9Dizr42bTCSYcfvUjp2DOia26v24Y+j1djLk9mXiQ9rfxnh/epv4+GN23LVqs46T0vnZcy+fa/r7B1aS0t9nRxoDAFgJ4gl9EYQdHZWDw1vPq1fp/4gDW2vTURCJbnsyk3qfGWOCYMvANvv5+L7r1Y5rB9XW7Tv0sux+zLgtevze6/ernYO71MC27TYaTGDY9XqdWWY+mu33evtL78uek/7a7m+f3p8eN7B1u9qk92ciKHO+3vcOrDSlvz+ONAYAsBJIk/tQhRsdtYLDSj9crkXbhXGVw+jMMx05GB83r0q1XVzn69Y4AACAlU2a3Icq0OhwMWGiQyK+QWBJOMFhEB0O0QEAANBO0uQ+VGHfXtULiA6nyNExvG1Undlzr3ro5kfU129/Sb115mfq9dM/Vs8fe8d+bdZJ2wEAAORHmtyHiujIG9HhFDE6xnfuV5cOXFavnvrAvqRu7I3TP7Hv6/HUHfPqnbt+bpe9cOy76sjwMXE/AAAA7SdN7kNFdOSN6HCKFB3XX3tAfe4Tj6m3z3xYCo2n73xF3bfv0+q6rdmf/93j5+yYz9w0nVkHAACQD2lyHyqiI29Eh1OU6DgyfFzNnfh+KTYuH7xS1zuTmzcVfOXkD8R1AAAA7SdN7kNFdOSN6HCKEB337nugFBtPHHmuodul5k8uqm8ffUtcBwAA0H7S5D5UREfeiA4n9Oj4ym3Pl4LD3C4ljankgRs+a7ebPvSEuB4AAKD9pMl9qIiOvBEdTsjR8fAnvlQKjuOjd4tjKhnaNmKvcpht79pznzgmf+fV/NVltbw4I6yTzSzWMf7CvFpaXlLzF4R1AACgy6TJfaiIjrwRHU6o0WFe7jYOjsnxC+KYSg5dd0R9685X7baPHf6GOKYziA4AAFYeaXIfKqIjb0SHE2p0fPHQrI0GEw/pdeYlc9PLYhdvfLgUK0V81SqiAwCAopMm96EiOvJGdDihRsdLJ9634WBeIje97uB1R+yrUj0y8VX7ClYX9l9SX7rlSfWdkwt2m2/ePqdOjk1mtisCogMAgKKTJvehIjryRnQ4oUbH47c+awPCvFqVtP623SfUFw7OqK/d9oI1c8vT9p3Jj46cEcdXI0/0o1ujlubOR1/bib4eF7s6r8554+N92I96fbRdah8N7GfzlYXymHRgiNExoxaq7LfWccvcLWGlsTWO469PnLPm/Uzjn0ts4Uq8PwAAeo00uQ8V0ZE3osMJNTpuHT5qo8Nc0di9fUwc0zZ2srygZqosm1n012ef1Ygn1cnJdDY66t2Pv+zc3JJe5k3uM9ERhYB/bLufUlik1+vjLsrRUYoe9/W5uYXUcZPfT2m9dE5uP/b8/cjRP1uiAwDQu6TJfaiIjrwRHU6o0WHEL3lrrmRI69unwqTdm3ynpSfSyUl+LBsdaU3tJzXBt/tIn6s/JhMElVQ/36o/EyncnFo/SwAAeos0uQ9VyNExoaZmZ9WsZ+qwNE4bnlTTdsy0mhwW1ncR0eGEHB1GHB4vHn9PDfRvFce0Q3LibiIkO0m3k2dzFSKWjoXMxFqexDe+n9TyVERk9lcijKk1+S/dIpUOiOh7qXyFIlpvts1Eiz3f5PkAANC7pMl9qEKNjig4/MgYOjsthMeQmpzWsTE9qSbseqKjbVZadBi37z6hnjv6pnr11Afq8NAd4piW2Ymxm2ibibd/tSGeNHsTdvEKRa3oaHo/taOj0tWJpHIYSMfw2fOyoRDHR63oiEVXjcT4KAUN8QEA6GXS5D5URbq9yl35uDhRWjZxcVZNnx2yn0dRQnS0zUqMDmNk+7h9Z/G3z3yojo3epe7Ze7/6/MEv2wfI799/SV1/7QFxu/qVJ9XpSXw6DKRl9URH8/tJ3f6Vig5pv1VVuRUqKXlc+dxklc8pFWIAAPQcaXIfqmJHh4/oaLOVGh2GeWWqZ4++YW+3Mrddxb6sw+PlE+/bh8+l7epmJuOLC3qinZqQpyfp8RWLBqOj7v3oZf6kPFqW3s67WuD2k5zI62CIz0evX/DX+efhto3CQp9v4gFzKXaSxyk9SK73WRpnl5ejQ3p4nugAAPQuaXIfqgJFh3tuI76ykUZ0tNlKjI7hbaP2qoaJjbPj5+3HXVuHEmMODB6yy/1ljXO3Bgn/Nz+OAUtPpmfqukKRnWDXu5/EuHQEpaOjtMzfJhsl4v7S0aHPtzzOC47U+NKY+NxtyAjLteT3QnAAAHqdNLkPVVGiwz27USUqiI42W2nRcXTktH2I3Lz5346BnfY2KxMX5k0B02MvH3xcHR+9O7McAACgc6TJfaiKEB1xcFR59SqN6GizlRQdN+2aUK+f+pG9yhEvu3HwoI2O0R17E2ONZ+58rQ1XOwAAAFohTe5DFX50mIfFTXBUuq0qRnS02UqKDvPgePpWKvMMx9yJ76uB/m2JseYKx6mxexLLAAAAOk+a3Icq7OioNzgMoqPNVlJ0mOAwt1aZz4e2jZTes0O6tQoAACAM0uQ+VOFGRyPBYRAdbbaSoiOODPOO5G+e/ql67dQP1a3Dd4pjAQAAwiBN7kMVaHSU3mFcFj/bEYWGPMa8YeBQer9dQHQ4IUfHDYM3q/PXT6mLNz6sJvfer3ZvHxPHAQAAhEOa3IeqCA+SFxvR4YQcHQAAAMUjTe5DRXTkjehwiA4AAIB2kib3oSI68kZ0OMQEAABAO0mT+1ARHXkjOhyiAwAAoJ2kyX2oiI68ER0O0QEAANBO0uQ+VERH3ogOh+gAAABoJ2lyHyqiI29Eh0N0AAAAtJM0uQ8V0ZE3osPpdHQMf/Iptf+ZX6ub3/mdaOTBF8TtAAAAikGa3IeK6Mgb0eE0FB2Du9SgtLwB+2Z/KcaGb+zye2rHocmqBob2ifsHAADoLmlyHyqiI29Eh1N/dOxTl99dUh99b0YdEdfXR4qMZo0+9Jp4DAAAgO6RJvehIjryRnQ49UeHduRR9e7SckvhIcVDsw7M/VY8BgAAQPdIk/tQER15IzqchqLDcOGx9O6jTYWHFA+tkI4BAADQPdLkPlQhR8eEmpqdVbOeqcPZcUNnpxNjZqcn1VBqTDcRHU7D0WG0EB5SOLRCOgZadGVBLS8vqBlpHQAA6FnSxLg7ouDwIyOOi8yyRGS4UAkoPIgOp6noMJoMDykcWiEdAy0iOgAAWJGkiXE4XFBcnBDWlUVxMq0mh+X1ndah6JAuY1XQF9Pbefr1ui39W/XJDthxe8bGdSTsUFu2bFV9mzZr/apPjzPs9m5/8bj+zQNq44ZNapMea5ab/ZhtzX7N/sficXqZGbNJL7P0+Rt9fX2qv2+T2rJpg9q6aZ3arrfbuWVQDW7crvpu/Ss1/6+X1b97/Zy6bvw6vX/zPVcnhUMrpGNk2En0ctnVeXWutP68mr/qrdMWrnjbajOLevniTPTRjVmaO5/ZNlqW3S55/CU1fyG5/0bO4dzckjdOCIML82rJ2489fml9dBxznv734v88Esut8jHS69LnCAAAik2aGIeD6CjJ/scrR0BlbqyNhqwoOgb0yUbjy9Ex4KJD0+Oi6NDcfsvRsSUbHWZ/+nOzTRQd2+3+ouhw9Dn1af2bN6ut/X1qy+Y+vf8+NaDPY9vWbeq/W7dLDZ76gvqbn/1M/afvPqH+6Z/+d9H3UYMUDq2QjuGLJun+RF9PvBfjSfaMWjATaH9i7ibtfkDEk+3SJNuLiOSyZFCUJune/rPn09g5lJe5UMlsl/peE2PKcVMOhuj4iWASrnTY8/ZjTY8hOgAA6C3SxDgYw5NqWkfH9Nkheb0zcdE82zGlJoR13RDe7VVxNKQko6O/DdHh9qc/j6JjTxQderl5iKhPB4elj2UM9G9WOwY22/UbNm9VfQN6++2b1TW3fVK9/O/MVY6n1T079DGHovOrRQqHVkjHKIsm1JUmx5mJdIXldsLvT+6lCb9blgmFzP6T4xo6h/S4VByYMYl4yIyRzlsOinR0ZH8GAABAFs3FiiHkB8l9Q2py2sREjSsYh6fscx+1roZ0UrjPdMTx4Njo0IGRjI7oykQUHDG3jd1PvdGx2UXHNr2/ODpceOj92OjY3Ke2b96o1/erjQNb1X+z+YDacvuU+uDDX6ifv/ktdeeOP1XXrv64WrN5vTt2dVI4tEI6Ron9P//JybNPnKQbqe2yE+5sYFSMDmGi7i9v/hw0KSh0ZGUlx6SPV090xFdf5NvDAABAWXpiH7IiREccHPKrV5XEwcGrV9WpFBw6ErTq0eFdmagrOvQfLBcd5vM4Orbr6BjQP4zNmzbpffTpdWasppcNbN6ktm9ap4+nj7V9m9p8xyX1k6X/qv7923+tjly3TfWvvUZt3LFN9ekgiY5dnRQOrZCOUbICo6P6LU8tREdiHfEBAEBl6Yl9yMKPjuh2qRq3Vblbr0K6rSoWYHS4ib6LjXJ09NurEOXocLdDZaLDbB/vq5HoGLNXOgb0MTb3ueiw+3LjB7aogW0D6mN/uF1tGr5X/eoX/1r96rXn1KkdH1fXrlujVl3zcfVxPX59KXiqk8KhFdIxyvK9vaq56EieU/PnoKXiQD6erw3RYcn7AQAAhj+pD13Y0VH04DA6FB3x5L0JZuKvmZOMoiPa3549cXSkboeyoRAft1Z0RH/I/Ogw+4uCw48Obft2tfm669TeXRPqynf/jfqPH35NTQz0qx2rVqnha3epDZsH1O+vXq9WbTBXSOLjVyaFQyukY/jshDr9cHUdD5L7odJSdOh9ZZf5E/pmz0FLx4G7CpGILL2vhdLx64wOe/zklYyZRf+ciQ4AACrzJ/WhCzc6eiE4jIJHh/AMhg2F+LhSdERRkIyOvkR0RPsq79Oex8CADY+P/fFa1Td2k/qzNb+nNg0PqHX9G+yrWG3U+7lm/Sa13kVNLTc8/xsxHppxYO634jHSovCIAiAdAaVJf0n2tqGWokNvF8dHRLqC0Mw5aNIVCRce8vHqjA6tfM7R9snvgeAAAKCy9MQ+ZIFGRykmZPGzHXGYiAJ5tiP86HCqRocXCPVHh96fjQ6zTbXoMOPdeeht+rcYW9S2LQPq2i1b7TMgG/WYTZv1WDemfPzKRh58SQyIZow+9Jp4jFCIoQAAAHpcemIfskCjo4cEFx1m4m65gPBDwj7PoU/WrPdfbcqExCYbCPH4+Lhb9LgoOsznG7zoKO3PHqt6dBjmuFH0ROdgnv3YrqNji/48Oram91VvdBhbRw6oHYcmWzIwtE/cd0iIDgAAVqJ4Ql8EREfeOhIdpZBolBQdZn/66zg6zFUHKTrMy9yaP0QmOramoiNaV44Os+2ojo6t8f7010nmSssWNTCw1a435xZ9bV5Ny5xPdOwonJLfO4gOAABWJn9SHzqiI29hRkcpHsrsHwYXHSYCRnV0lCLBRYdZHo2PosOIomO73m6LWr9ho9roRcdmvT9zPLP96KiOjq16f3pZNjrcVQyzT7N/Pd4+Z2L24X1NdMiIDgAAVqL0xD5kREfewokOGwtVmH3ZSEhFh4kE/QckigNz1cKML0fHqImOrdv15150xFdCUtExoKPDLDNjSvT+Nm4y3Ncb9XE2btL0fgy9bLOhx5XfHwQAAGClkyb3oSI68taZZzq26P+YtejJfjX9WwbUFnt704Dq0yc8Nj6utm3fYZfZwEiMH7DjjD3j+/S4nfrzrTYaotiI1pltzXizbGxPan+WXmfW2zGx5Pdm/oBaeoy56mL2668HAABYmfScrDCIjrx1JDq2DGyrw9aqzFUIc5vUFnMLlJ7Yj+/dp3bsvNYus4GRGK/3p8eZbfbu26/HDerPzdUOfT46OMx6s27A7E9/7u/PLNtswkFHigkVs99+M8Z+dMvMA+SW3pdmnvUwtmw1tmW+fwAAgJVHmtyHiujIW2eudORgfHyvMm8OKK3ztXscAAAA6iFN7kNFdOSN6HCIDgAAgHaSJvehIjryRnQ4RAcAAEA7SZP7UBEdeSM6HKIDAACgnaTJfaiIjrwRHQ7RAQAA0E7S5D5UREfeiA6H6AAAAGgnaXIfKqIjb0SH0+noGP7kU2r/M79WN7/zO9HIgy+I2wEAABSDNLkPVcjRMaGmZmfVrGfqcGrM4anEemt6Ug35Y7qM6HAaio7BXWpQWt6AfbO/FGPDN3b5PbXj0GRVA0P7xP0DAAB0lzS5D1Wo0REFhx8ZQ2en5fBIcKESUHgQHU790bFPXX53SX30vRl1RFxfHykymjX60GviMVDBhXm1tLyk5i8I69pgZnFZLS/OiOsAAFg5pMl9qIp0e5ULiosTwrqyKE6m1ISwrhuIDqf+6NCOPKreXVpuKTykeGjWgbnfisdABUQHAAAdIE3uQ0V05I3ocBqKDsOFx9K7jzYVHlI8tEI6RmFcWVDLywtqRlqXB6IDAIAOkCb3oSpQdAxPqmkdHdNnh+T1Rj1jOozocBqODqOF8JDCoRXSMQqD6AAAoAdJk/tQFSU6htTktHlQfFpNDqfWudAoPUhe40pIpxEdTlPRYTQZHlI4tEI6Rtq5uSU9udcTYmfhSnrMeTV/tbzeH1OaSNtAiNc3MHG3E/3yfpevzqtzerndr7/ci4/0+S7Nnff2GZ2rWZbYh9tveVx6P/qcr2Sjo75jzZR+PuWf3Yxa8LYzPyOiAwAAQ5rch6oI0REHR62HyCMTFyvESZcQHU7T0WHE4TF/SV4vkMKhFdIxfHZS7U/IXQRkJs/+ZFkHRiI6UuujiXo94RHtu3wsPYlf9M5FvNKht/HPJXO+5UBKfw9+METn6O87jgT/vOs9Vvp7rXS85M8JAICVSZrchyr86IgiopFbpqJnP0K5xYrocFqLjs+qN36xrD5657K8XiCFQyukY5SZyXE2Dvz/I5+JkhQ7NrO+fLXBH5tR63amum6vSh/LhUBqcp/8PqIoKMeDU+t8mjpWGVc6AAAwpMl9qMKOjsaDwyA62iKY6IiDQ08yg729yv2f+9ItQD43OTYT5WrxUGkinVieuPVK8ybkdpx3vISK0RFflShLh0D6nBMhYL9vYb9idDR+rEo/s0o/KwAAVhZpch+qcKOjueCIb8Xi1ataFkR0NBkchhQOrZCOUVJp8u2pNIGOVZpINzbBdlcMzKTe30aIjvg2pfQtTrVCoJnoaPZYRAcAANVIk/tQBRod6YfDU+JnO4bcGwb6QrnCESM6nIajo4XgMKRwaIV0jLIKtxl5Kt0qFJMn0rX3K0pHRiY6pEl+s9EhnJ89XhwdzR/L/kwyP7NoLNEBAIA0uQ9VER4kLzaiw2koOsYuqfkWgsOQwqEV0jF8doKcuZqw4N1i5G4v8ifLenIeT9ij7ZMTb2mfIj35X/An7OnISF15MNKRE1+NqBUC6XjKnmN8G1X5eM0eK44af3m8LdEBAIA0uQ8V0ZE3osOpPzr2qZkPWgsOQwqHVkjHSIvDoSQzMU4/11CerMcT8+Q+6ggOw03Oq21X3m+8Lnku8cvVNhodRuacM5HT3LGs1PdmxsQ/q8xYAABWFGlyHyqiI29Eh1N/dGiDu9SgtLwBNzz/GzEemnFg7rfiMdqJiTQAAGiMNLkPFdGRN6LDaSg62mDkwZfEgGjG6EOvicdoJ6IDAAA0Rprch4royBvR4XQ6OoytIwfUjkOTLRkY2ifuu92IDgAA0Bhpch8qoiNvRIfTjegoEqIDAAA0Rprch4royBvR4RAdAAAA7SRN7kNFdOSN6HCIDgAAgHaSJvehIjryRnQ4RAcAAEA7SZP7UBEdeSM6HKIDAACgnaTJfaiIjrwRHQ7RAQAA0E7S5D5UREfeiA6H6AAAAGgnaXIfKqIjb0SHQ3QAAAC0kzS5D1XI0TGhpmZn1axn6rA0LlYeP312SFjfHUSHQ3QAAAC0kzS5D1Wo0REFhB8ZQ2enq4bHxMVynBAdbUB0AAAAhEya3IeqSLdXuSsZFyey64Yn1bQNkmgM0dEGRY+O4U8+pfY/82t18zu/E408+IK4HQAAQDFIk/tQ9UJ0DKnJ6Xg50dE2XY2OwV1qUFregH2zvxRjwzd2+T2149BkVQND+8T9AwAAdJc0uQ9VgaLDXc1IB0V029WUmrBfEx1t073o2Kcuv7ukPvrejDoirq+PFBnNGn3oNfEYAAAA3SNN7kNVlOhwVzNmp9XksL88HRlER9t0Lzq0I4+qd5eWWwoPKR6adWDut+IxGnJhXi0tL6n5C8K6FeO8mr+6rJYXZ4R1AACgMdLkPlRFiI44OLIPkduHx6cn1VBpGdHRNl2NDsOFx9K7jzYVHlI8tEI6RkOIDo3oAACgfaTJfajCj474VakyIXF4qo4rH91HdDgNR4fRQnhI4dAK6RgNKVx0RIGwNHdeWAcAALpPmtyHKuzoqBgc3rpqQogPosNpKjqMJsNDCodWSMdoCNEBAADaSprchyrc6KgWHJVxpaNtgokOIw6P+UvyeoEUDq2QjpF2bm5JLS8vlyxc8daL0TGjFrzxy1fn1bnSun41s6iXLc5EH92YKALcbUqJZf5+6z2X5PFL+7Hry8sT6yoy+8pGVfw9RF8TMgAAtI80uQ9VoNHhXqkqfeUiVvmdyYmOtgkrOj6r3vjFsvroncvyeoEUDq2QjuGzk3w/GtzEvTTZz0RHNOH3Y8BO0L19xLFRGnNloRQByWXJyX5952L2s6Bm4jGZ/TQaCEQHAACdJU3uQ1WEB8mLjehwmo6OODj0xDXc26vqmHCnosOGQWky7qTGJCfshrvCISwrT+TrPZdk8GT3Q3QAABA2aXIfKqIjb0SH01R0NBkchhQOrZCOUVK6ciBITPRTQSGNryM6kpP21LImzkXcT4VASN+2VT4/ogMAgM6SJvehIjryRnQ4DUdHC8FhSOHQCukYJXYS792qJBGio9bku/noaOxcIvVFR2VEBwAAnSVN7kNFdOSN6HAaio6xS2q+heAwpHBohXSMMjPhTt+ulJKa6GeeuxA0FR1NnEukHdEh37JFdAAAkAdpch8qoiNvRIdTf3TsUzMftBYchhQOrZCO4bOBkLrCcG5uoTyxT0/07dfpCbieuHuR0Vx0NHEuVoX9JI5fnR3vhVTpViyiAwCAHEiT+1ARHXkjOpz6o0Mb3KUGpeUNuOH534jx0IwDc78Vj5EWTfY9/oRdmui78Chvk1zfbHQYDZ+LtB/v/OoLhehqR3xMs03yeyA6AACAPDFGa4gOp6HoaIORB18SA6IZow+9Jh4DAAAAjZMmxmgN0eF0OjqMrSMH1I5Dky0ZGNon7hsh2QwAwAok/U4sBmlijNYQHU43ogMrhfQPMQAAvU76nVgM0sQYrSE6HKID+ZH+IQYAoNdJvxOLgQfJ24/ocIgO5KUPAIAVSPqdWBRER/sRHQ7RgbxI/xADANDrpN+JRUF0tB/R4RAdyEv/lgEAAFYc6XdiUYQVHRNqanZWzXqmDqfGHJ5KrC+bUhP+uC7KJTq27bwWgDOwdRsAACuO9DuxKMKJjig4/MgYOjttgyIRHjY6ptXksLcsMIWNjutvuFENXjckrvO1exzQsO07AQBYeaTfiQUR9u1V7srHxYnyMqIjP0QHimLHzkEAAFYc6XdiURAd7Ud0OEQH8rJd/8MLAMBKI/1OLIqgo2N4Uk3r6Jg+O1ReJj7TEc7zHAbR4RAdyIv0DzEAAL1O+p1YFOFGx5CanDZBUeuqRr3jOofocIgO5GU7AAArkPQ7sSjCjI44JIRXr5JIV0S6iOhwOh0doxefVTc8+7+qm9/5nWjsL+bE7QAAAJCvEKNj4mIUHPVHhPDsRxcRHU6no+P6r/5KjA3f+Be/r3bddq6qHeM3i/sHAABAc0KLjsaDQ3PPedR1VaQDiA6n09EhRUaz9jz8pngMAAAANC6k6GgqONytVaFc5TCIDqdb0WGueLTC7OPAd34rHqOmB15VS8tL6pUHhHVom60AAKxA0u/EoggmOuJ4qCC+ihG/YaC0LhREh9Ot6JDWNaKl/RAdHSH9QwwAQK+TficWRZgPkhcb0eFUHXdsVr337jfUqTFhXcrui3+tFt/4srpTWOfreHR85QdqefkH6nF/WaGjY1YtLi+rxa9I68Ii/UMMAECvk34nFgXR0X5Eh1N13NiD6pW/XVYf/eRb6t4q4WGC48OPltXfvvyg2i2s9xEdrSI6AAAImfQ7sSiIjvYjOpya42qERxQcH6kPn68dHEYno+PxHyzr4PC5+ChFRzSBj9cvzX+qxj5SoRIHjf3oxvy7V9X9et3980uZZf5+o3Nw640fzCbXS/zjOItf+ZR65d9J5+7FSen7jcaWtheOmTjvePvUmHpJ/xADANDrpN+JRUF0tB/R4dQ1rkJ4NBocRiejw6p4pcNMqr3ldlwyKmxw+BPz9Jg4AkpjvIhJLUtEQeZKi4uBesJDuNJhQyEdNv73Xfp+/WO6c/WOmdmP267Z8JD+IQYAoNdJvxOLguhoP6LDqXdcOjyaCQ4jpOhITqZTVwzsmNR26THCvqMrBcIybzJvYiZzZUI6T1E2OqJl2WBKfi9CPCSOmd2HkQmvBkj/EAMA0Ouk34lFQXS0H9Hh1B0dRhweP/9JU8FhhBMd6Qm2FBTm6kBWzehIXXVILkvd4pTgB4C/PHuFIh0QyZBJBYT4/aaWuzBJno9DdAAAUDfpd2JREB3tR3Q4DUWHocPjpZ8vqR83ERxGoaIjfctSWgvR0ewtS5WiI3G+5nM/FOqOjtTPqUXSP8QAAPQ66XdiURAd7Ud0OA1HR4sKEx2VJuq+pqKjtVuWKkaHPf/ofM3+E+srfC/J86q03+ZJ/xADANDrpN+JRUF0tB/R4fR8dEgT7nqiw32dDojHf+BFRpPREW2XDYPF0rGrSZ9nmTnO0rzejxhZ5lYpb7lb5u/HxlDm+/lB9fCqQvqHGACAXif9TiwKoqP9iA6n09Fx4wv/VxsL13/1Vy0x+zD7ko6RFk2mvQl1XdFRXuY/35BY32x0GC48ylKhUI23bfaKhhAk8ff7lTg+IlK4lH9WTtNXZAAAQNEQHe1HdDidjo6xf/Gd0lWKVg1PflE8xoolxlSV5QAAAB6io/2IDqfT0WHsvP6w2nXbuZbsGL1e3PdKJl5RMYgOAABQh7CiY0JNzc6qWc/UYWmckR47pSbEcZ1HdDjdiA7kocqD4EQHAACoQzjREUWEHxlDZ6fF8Ki0PBREh0N0FF/8HIb0jIZFdAAAgDqEfXuVu5pxcaK8bHhSTQccHAbR4RAdyM0OAABWIOl3YkEULTomLuqvpyfVUGJcWIgOh+hAXrbrf3gBAFhppN+JRRF0dLirGtNnh9yyITU5HUWIjQ8TJE55TPcRHQ7Rgbxs3bYDAIAVR/qdWBThRocLjNlpNTkcLys/PJ64verwVFDhkUt0bN7cn7vx8b1q27bt4jpft8YBAACgmMKMjjg40s9uCM94OCHddkV0OEQHAAAAjBCjI751Knvlonx7VXI50dEWRAcAAADyEFp0VA4Ob30mLirHSDcQHQ7RAQAAACOk6KgVHFbm4fL4fTv8Zz+6i+hwiA4AAAAYwUSHiwkTHZLEsx2ZseG8G7lBdDhEBwAAAIwwHyQvNqLDCTU6hj/5lNr/zK/Vze/8TjTy4AvidgAAAGgO0dF+RIcTanTsm/2lGBu+scvvqR2HJqsaGNon7h8AAABJREf7ER1OqNEhRUazRh96TTwGAAAAyoiO9iM6nNCjw1zxaIXZx4G534rHAAAAQBnR0X5EhxN6dEjrGtGu/QAAAPQ6oqP9iA6nLeOOzKh33/mKOjYorEsZ/OSzauG1R9URYZ2P6OgFWwAAWIGk34nFQHS0H9HhtGXc4KfU/C+W1Uc/flLdUyU8THD8zUfL6hcvfkoNCut93YiOc3NLanl52VlS81fm1ZL5eEGvv+B9Hm9zZSEa5y2z+1icKY9Z0aR/iAEA6HXS78RiIDraj+hw2jauRnhEwfGR+pvnageH0enoiIJjQc2Uls2ohTg+bFScV/NXl9XS3PnSNjOLUaCUl2XHAAAAFAXR0X5Eh9PWcRXCo9HgMDobHVFgLFxJLU9d3UhexTDbLKmFxeyyxNUQAACAgiA62o/ocNo9Lh0ezQSH0dHosHHhX+Xwl3sRYW+ncuPMuqvz6py/rVlvlsXbAwAAFAjR0X5Eh9P26DDi8PjwR00FhxFkdHhXRMxVj+g2quiWKrPM3G7FrVUAAKCoiI72IzqcXKLD0OHxwodL6kdNBIfR+egQbq8SHhSPwmJGh0bytqv0MgAAgKIhOtqP6HByi44WdTQ6tOih8GoPkjs2RPRy/zaqeJl0tQQAAKAgwoqOCTU1O6tmPVOHq69PmJ5UQ4n9dQfR4RAdZfGrUZUCInN7lRHFSPI2KhcovFRugvkLBgDASiP9TiyKcKIjCgo/MobOTtuYSIaHJNp2+uyQsK7ziA4n1Oi44fnf2FjYN/vLlph9mH1Jx6hJjA7UbzMAACuQ9DuxGMK+vcpd2bg4Iawri+JkWk0Oy+s7jehwQo2OkQdfKl2laNWu058Xj1GLfYlcXo2qaX36H14AAFYa6XdiURQ/OuoLk04iOpxQo8PYOnJA7Tg02ZIt146I+06bWZSf3cg8XI669fXpf3wBAFhhpN+JRRF0dAxPqukat02FdpXDIDqckKOjk6J3JPef6SA4WrVJ/8MLAMBKI/1OLIpwo2NITU6bB8SrBUV4VzkMosMhOpCXPgAAViDpd2JRhBkdcXBUf4g8xKscBtHhEB3IS9/mLQAArDjS78SiCDE6Ji5GwVH91ajCvMphEB0O0YHc9Ot/eAEAWGmk34kFEVp01Bcc4V7lMDoUHeYPXp36Yno7T79et6V/qx4T7xNAmLy/z5Y0ppfx/fP98/3z/fP9F4+Za/arvk19auPGjUFFR73BEfJVDqOw0RH6lQ6uiGDl8v4+W9KYXsb3z/fP98/3z/dfPMnvRZoYd4V7pSoTHZLm3jSwO4gOh+gA2sX7+2xJY3oZ3z/fP98/3z/ff/EkvxdpYozW8EyHQ3QA7SL9Yw4AWHmk3xHFIE2M0RqiwyE6gHaRfvEAAFYe6XdEMUgTY7SG6HCIDqBdpF88AACELNwHyXsF0eEUPTqGP/mU2v/Mr9XN7/xONPLgC+J2QPtJ/5gDABAyoiNvRIfT1egY3KUGpeUN2Df7SzE2fGOX31M7Dk1WNTC0T9w/UD/pH3MAAEJGdOSN6HC6Fx371OV3l9RH35tRR8T19ZEio1mjD70mHgOoj/SPOQAAISM68kZ0ON2LDu3Io+rdpeWWwkOKh2YdmPuteAzfzOKyWl6cEddhpZP+MQcAIGRER96IDqer0WG48Fh699GmwkOKh1ZIx/ARHahM+sccAICQER15IzqcrkeH0UJ4SOHQCukYPqIDAABUJ03uQ0V05I3ocIKIDqPJ8JDCoRXSMXxEBwAAqE6a3IeK6Mgb0eEEEx1GHB7zl+T1AikcWiEdw1eKjisLanlZf24tqfkLyXHn5pa89fp7mjufWJ/cXkuFjD1OaX12/wAAIFTS5D5UREfeiA4nrOj4rHrjF8vqo3cuy+sFUji0QjqGrxQDXiREgeGHwYxa8CPiwrxa0tssXPG/rjw+czXFBgrhAQBAMUiT+1ARHXkjOpxgoiMODj3ZDv72qqvz6lxi+Xk1f1W4mlFpvY2IBTWTGafZIEmvq7V/AAAQDmlyH6qQo2NCTc3OqlnP1GFh3PCkmk6Nmz47lB3XJUSH085x/foP79jYuNo6sF319cljRE0GhyGFQyukY/gyVyEqLp9RC6XboyLlaIgiIrnMSd925SE6AAAoAmlyH6pQoyMKDj8yhs5OZ8Pj8FTFZaGEB9HhdD06WggOQwqHVkjH8NUTHfHzHKXbqSpeqSiHSWmdiY7MlRQAAFAc0uQ+VEW6vcpd+bg4UVo2cVF/PT2phhLjhtTkdHJcNxEdTlejY+ySmm8hOAwpHFohHcMnR0cUD1FkSIFR/fYoGylxaGSe9wAAAMUiTe5D1QPRMTulJoRxXOloUe9Exz4180FrwWFI4dAK6Rg+Gx2pW52iZeXnMNJhEl/58K9mlK+CpKIjvvUqdbVjZrHCMyAAACAw0uQ+VAWKDvfsRjIm4uc+ptXksPd15upH9xAdTveiQxvcpQal5Q244fnfiPHQjANzvxWP4YuDIo6PSDoIks9zLM3NJK90pJ/bqPBguj+m0lUSAAAQGmlyH6qiRIe7ZaoUF0nRFQ8nkNuqYkSH09XoaIORB18SA6IZow+9Jh4DAACgftLkPlRFiI44OKRXr4qvdLhbrEqvZCXHSTcQHU7Ro8PYOnJA7Tg02ZKBoX3ivgEAABojTe5DFX50xFcxss9oxDEiP9MRyi1WRIfTC9EBAAAQDmlyH6qwo6NycBiV4qJSjHQH0eEQHQAAAO0kTe5DFW50VA+O5BjpfTp4ydwWER0AAAAhkyb3oQo0OoR3Gff5kZF4iNwJ5eVyDaLDIToAAADaSZrchyrcKx29guhwiA4AAIB2kib3oSI68kZ0OEQH2qV/+3bVv3Wb2jwwoDZv2aIG9J+DLVu2qf4tW9Xm/i2qT4/p0x/N52Z9/xYzrpJoDAAAhZOZ2IeM6Mgb0eEQHWgbGxw6MEw06LDYomPDhEV/f/R1KThi0j/U6TEAABRNZmIfMqIjb0SHQ3QAAAC0kzS5DxXRkTeiwyE6AAAA2kma3IeK6Mgb0eEQHQAAAO0kTe5DRXTkjehwiA4AAIB2kib3oSI68tah6JD+41bQF9PbecxEfkv/Vn2yA3bcHj2p37Zth31It2/TZk3/QdHj7CTfbO/2F4/r3zygNm7YpDbpsWa52Y99wNeM09uYSCjtL7UfM8bS2+zZY6JD709/Lu5Pf2w4OgZ3qUFpeQOGP/mU2v/Mr9XN7/xONPLgC+J2AAAA+SjPx8JHdOSN6DDj9Dbdi4596vK7S+qj782oI+L6+uyb/aUYG76xy++pHYcmqxoY2ifuHwAAoDHl+Vj4iI68ER1mnN6mndFhvo6iY1sd0aEdeVS9u7TcUnhIkdGs0YdeE4/RkAvzaml5Sc1fENatGOfV/NVltbw4I6wDAKDXledj4SM68kZ0mHF6m65Gh+HCY+ndR5sKDykemnVg7rfiMRpCdGhEBwBgJSvPx8JHdOSN6DDj9DbNRUdf5egYjaLDnn/m51FBC+EhxUMrpGM0pHDREQXC0tx5YR0AAGhceT4WPqIjb0SHGae3aTY6zLET+3Pn11R0GE2GhxQOrZCO0RCiAwCAFa48HwtfyNExoaZmZ9WsZ+qwMG54Uk3746Yn1VB6TBcRHWac3qZt0aGPY/c3uqe56DDi8Ji/JK8XSOHQCukYaefmltTy8nLJwhVvvRgdM2rBG798dV6dK63rVzOLetniTPTRjYkiwN2mlFjm77fec0kev7Qfu768PLGuIrOvbFTF30P0NSEDAFjJyvOx8IUaHVFw+JExdHY6Gx6HpzLLJi6a+JhSE/GYLiM6zDi9TVPRsTGv6PiseuMXy+qjdy7L6wVSOLRCOobPTvL9aHAT99JkPxMd0YTfjwE7Qff2EcdGacyVhVIEJJclJ/v1nYvZz4Kaicdk9tNoIBAdAABUV56PhS/kKx1p7srHxYnE19Nnh7wxmrvykVneJUSHGae3aV90bLHblqPD7EPvq15xcOiJa7i3V9Ux4U5Fhw2D0mTcSY1JTtgNd4VDWFaeyNd7Lsngye6H6AAAoL3K87HwFTg6XFxkb7kaUpPTfpx0F9FhxultakfHgN3GRMf2RHRE55aOjtFmoqPJ4DCkcGiFdIyS0pUDQWKinwoKaXwd0ZGctKeWNXEu4n4qBEL6tq3y+REdAABUV56Pha9A0ZG5glHhSkccHYE821Gw6DBvvGduXxKiQ4+JQsEo72/PmP8MhhQd7naoFqIjub8mr3S0EByGFA6tkI5RYifx3q1KEiE6ak2+m4+Oxs4lUl90VEZ0AABQXXk+Fr6iRIcLidlpNTlcXh49v5FcFj/7QXRUYoMjprd1ytERLU9EQjo63L7M2OSD35WiIxUxpX2V9xNHx7iJju077bnI0eEixkbHdrcPM6aKsUtqvoXgMKRwaIV0jDIz4U7frpSSmuhnnrsQNBUdTZxLpB3RId+yRXQAAGBE86hiKEJ0xMEhv3pVFB5l02cnuL2qplJ0GHp7zY8OeyWhXdGhP5qvTXSYKxhxdETHLe/HjDNqRofZn94uesnceqJjn5r5oLXgMKRwaIV0DJ8NhNQVhnNzC+WJfXqib79OT8D1xN2LjOaio4lzsSrsJ3H86ux4L6RKt2IRHQAAaNE8qhjCj444Kup/MLzSbVfdEWZ0GKXoiMTRYdZloyMKjigW3PaaueqQuB0qjg67v3R0ROMS0VHaTxQVxvj4PhcdWytHh/7anN/WrXVe6RjcpQal5Q2QwqEV0jHSosm+x5+wSxN9Fx7lbZLrm40Oo+FzkfbjnV99oRBd7YiPabZJfg9EBwBgJSvPycIXdnQ0HhyafRldXjK3Pi44okiIJvZmeaXokK5OyNFh/mClosONG6gSHSZ6THTsMNGhx7UtOtrghud/I8ZDMw7M/VY8BgAAQP2ieVQxhBsdzQSH9IxHt4UdHZ6q0aG/rhQKUUzstJ8no2OLEB0764yOa4OLjpEHXxIDohmjD70mHgMAAKB+5Xlc+AKNjvS7jKfEz3YMxQ+NxwJ5jsNXzOjQ4WCemdi2tVp0JJ/BMJ/H0WHGitGhx1WPjq1RdOyIomNThegw4zsdHcbWkQNqx6HJlgwM7RP3DQAA0JjyPC584V7p6BUFjo49QnQkxxr1RIf5vBwd7l3E3b78/Znxe2tER/Sw+0BXogMAACAc5blU+IiOvBUoOsyVBhcdOgrMm+8NDGyzk/0oEozsdvY2LD35N+Pi4DDj0s902EgY2B4dQ4oOa8DGib2tq1/HTrw/ty59fk29IzkAAEBPKM+lwkd05K040aEn9PYdyc3XZlI/MhZ97Sb6lpng22CIrnyIceLvz0RHYn/RVY9oH9E4O9Z9tOPM/rZE+4sCJrlPs2zTxs1qRO/PHJfoAAAAK5ObPxUC0ZG3YkWHuX3JGRy8rnSlohwF0VUGPwbMOHPFoTTWjo8++suuvXaX/Rjtx2zvHdszqMeZ5z5KY1NsdGzabPdnr7DoY2V/HgAAAL0uO08KF9GRt8JFh7l6YCbzJiTMFYc4HOy4ODr0pD/exgSCebbCbGc+j8ebqxrmc7tP89G/aiJFh14XbefCx31dDp4odqLj99sx8ft5ZH8eAAAAva48lwof0ZE3rnS4ZVzpANpki/674JPGAABWgGhuVAxER954piOxPxcwZlwqOqL9F/uZjuFto+rMnnvVQzc/or5++0vqrTM/U6+f/rF6/tg79muzTtoOaETf5s0J0hgAwErg5k+FQHTkrTjRIbw6VCImrOx2vHpVvxrfuV9dOnBZvXrqA/X+3b8oeeP0T9SLx99TT90xr9656+d22QvHvquODB8T9wPUg+gAAETKc6nwER15K1B0aPGkXk/2eZ+O2q6/9oD63CceU2+f+bAUGk/f+Yq6b9+n1XVbs/+d7h4/Z8d85qbpzDqgXkQHACBSnkuFj+jIW49FR/lYZuJvxq+kdyT3HRk+ruZOfL8UG5cPXlETQ7eJY31vnv6peuXkD8R1QH1MaPikMQCA3leex4WP6MhbD0dHNN7GxLZkdJhxYnTocdWjQ0eMiY7tUXRsrBAd5utuRse9+x4oxcYTR55r6Hap+ZOL6ttH3xLXAfUhOgAARnkeFz6iI28rJDp22M+T0ZGMhHhcfdGxM9jo+Mptz5eCw9wuJY2p5IEbPmu3mz70hLgeqE86OgAAK1N5Hhe+UKNjSE1Oz6rZ2aSpw9LYCTWVGDetJoelcd2xQqPDrE9Fx1g0Lt6ftC/DREf8/huhRcfDn/hSKTiOj94tjqlkaNuIvcphtr1rz33iGKA+6V86AICVqTyPC19xrnQMnZ3OhsfwpJo2oXFxorRs4mJY4dGz0RFtE0WHebUps20pOty+ktExno0OGwzlYxvxMyLmqkfF6NDbjY3q6BjoXHSYl7uNg2Ny/II4ppJD1x1R37rzVbvtY4e/IY7Jw8zislpenBHXAQCAoivPycJXpNuroisa02eHSstsYExPqqHEOHeVxAuRbuq96HChEG9TMzp0mJhtTHTYl8JN7M87durB9IrRYffXb8+vk9HxxUOzNhpMPKTXmZfMTS+LXbzx4VKsdPpVq4gOAAAQImliHI50dGQjxDo85W6zmlIT/vIu6f3oGKsnOnQk1Bkdidu1xOjQ52f2Z6Ojc+/T8dKJ9204mJfITa87eN0R+6pUj0x81b6C1YX9l9SXbnlSfefkgt3mm7fPqZNjk5nt8kZ0AACAEEkT41BEt015IeFurfJvt4puwdJjbHiEcYtVeNFhJumW3s5jJvP+O5AnrkzokDCT/3Qs+ONMNMjRER2rdnRE29Rzu5YZa5/pGNge7Sfz82i/x2991gaEebUqaf1tu0+oLxycUV+77QVr5pan7TuTHx05I47vBKIDAACESJoYd1MUGrFURCSiI3VLFdFRBdHRlFuHj9roMFc0dm8fE8e03ZUFtbyswyF2dV6dK60/r+aveuu0hSvetpoYHVX3qV2YV0vLS2r+ivloxiyoGX99LL2fxHGqnJvdv7fOP361dfCU//4BAFYy6XdEMUgT42CkHxovRYdwmxXRUQXR0bT4JW/NlQxpfTudm1vSE289+b8QL9MT+cV4Ej6jFsyk3J/ouwn70tz50rJ0dGT36cb4YRFP/KtN+OMwKe1Hn0/pOMK56UCJoiNaV46j7Pckr0NS+e8fAADFUKQHyb3bp+zX5ZfKTb+UbnJcdxEdZpzepheiw4jD48Xj76kB/fOSxrQuPQFPsvEgREF6eTI6Ku0ztdxFR6VjW/Yqh3wFpNK5WZlYqXMdUsp//wAAKIYiRwevXuWR/uNWQHS07PbdJ9RzR99Ur576QB0eukMc0xI7Aa9wW5NmYsK/olGS2i4RHVX2mdhfXZP/8u1T6fOoeG6OPSe9XeJKSB3r4Cv//QMAoBgKFB3uVakSt1G5W6wyL6MbyFUOg+gw4/Q2vRQdxsj2cfvO4m+f+VAdG71L3bP3fvX5g1+2D5Dfv/+Suv7aA+J2dQk+OmLRVRI/PiqeW4L3zEcmMKqtQ6T89w8AgGIINTrKt06VVQiJ+FmPWuO6hOgw4/Q2vRYdhnllqmePvmFvtzK3XcW+rMPj5RPv24fPpe1q6/btVY3d5uQft+rtVWlVbtOqum7FK//9AwCgGAp0paOgiA4zTm/TS9ExvG3UXtUwsXF2/Lz9uGvrUGLMgcFDdrm/rBF28p6Y/Gcfuk5cCbCxkIyKZHRI+3Rj/EioEB2JcaUHwyPJ0BDOLR6v973gXwXxw6LaOqSU//4BAFAMREfeiA4zTm/TK9FxdOS0fYjcvPnfjoGd9jYrExfmTQHTYy8ffFwdH707s7xeUSToCbyTvG3JTe5LKoRC6hal9D7T6+uNjsQ+Mlc20udWDovES+L6UVFtHVLKf/8AACgGoiNvRIcZp7fphei4adeEev3Uj+xVjnjZjYMHbXSM7tibGGs8c+drLV3tAGTlv38AABQD0ZE3osOM09v0QnSYB8fTt1KZZzjmTnxfDfRvS4w1VzhOjd2TWAa0R/nvHwAAxUB05I3oMOP0Nr0QHSY4zK1V5vOhbSOl9+yQbq0C8lP++wcAQDEQHXkjOsw4vU0vREccGeYdyd88/VP12qkfqluH7xTHAvkp//0DAKAYiI68ER1mnN6mF6LjhsGb1fnrp9TFGx9Wk3vvV7u3j4njgHyV//4BAFAMREfeiA4zTm/TC9EBhKH89w8AgGIgOvJGdJhxehuiA2iX8t8/AACKgejIG9FhxultiA6gXcp//wAAKAaiI29EhxmntyE6gHYp//0DAKAYiI68ER1mnN5mJUTH8LZRdWbPveqhmx9RX7/9JfXWmZ+p10//WD1/7B37tVknbQc0pvz3DwCAYiA68kZ0mHF6m16OjvGd+9WlA5fVq6c+sC+pG3vj9E/s+3o8dce8eueun9tlLxz7rjoyfEzcD1Cf8t8/AACKIdToGFKT07NqdjZp6rA0VhueVNN2zLSaHBbWdxHRYcbpbXoxOq6/9oD63CceU2+f+bAUGk/f+Yq6b9+n1XVbs/+d7h4/Z8d85qbpzDqgfuW/fwAAFENxrnQMnZ0WwsPFyfSkmrDriY7aiI62ODJ8XM2d+H4pNi4fvFLXO5ObNxV85eQPxHVAfcp//wAAKIbiRMfatRNqSkfH9Nmh0rKJi+WvoyghOmojOlp2774HSrHxxJHnGrpdav7kovr20bfEdUB9yn//AAAohmJHh4/oqBfR0ZKv3PZ8KTjM7VLSmEoeuOGzdrvpQ0+I6wEAAOpXno+FrzjRYa5qzM5OqQlhnUF01IvoaNrDn/hSKTiOj94tjqlkaNuIvcphtr1rz33iGN/M4rJavjqvzgnrGnNezV9dVktz54V1AACguMrzsfCFHR1RaMSqBwXRUS+ioynm5W7j4JgcvyCOqeTQdUfUt+581W772OFviGPSiA4AAFBdeT4WvuJc6Si9QtXFCXE90VEvoqMpXzw0a6PBxEN6nXnJ3PSy2MUbHy7FSndetYroAACgN5XnY+ErUHRoUVjIt1gRHfUiOpry0on3bTiYl8hNrzt43RH7qlSPTHzVvoLVhf2X1JdueVJ95+SC3eabt8+pk2OTme06g+gAAKA3ledj4SM68kZ0mHF6m6JHx+O3PmsDwrxalbT+tt0n1BcOzqiv3faCNXPL0/adyY+OnBHH12Jvr1qcyXx9bm5JLS/rz60FNeNtY12YV0ul9SY2ZsTosPsrjVtS8xeS2yfGu2ULV9zXCVHUiPsyrix46zTvlrHkOST3X20dAAAwyvOx8BUoOg5P6ajg1auslv7QER1NuXX4qI0Oc0Vj9/YxcUw7idGhJ9/lGHCTfW+MFAfZ7bL7jsLAiwX7dRw01a+UpPd1bm6htJ8okPwI0ftajKLDrvOfWdHHjM+72joAABArz8fCF2p0RC+PW36I3Mhe4YhCIz3OmZ5UQ6nx3UB0mHF6m6JHhxG/5K25kiGtbycxOtIPlifiQIgJKxUNNkzSV0jSYVH+OhMACdWCZEYtVLlCIZ9r7XUAACBWno+Fr0BXOgqK6DDj9Da9EB1GHB4vHn9PDeiflzSmHcToSE/EhSsS2Ul+KgzsNnpfgkQ8lG7TSt0ulVbaXypkxLjxVNt/vccGAGBFK8/Hwkd05I3oMOP0Nr0SHcbtu0+o546+qV499YE6PHSHOKZVuUZHxSsXvuhKRb0T//KzJu58akVHrBQtwnGqrQMAYMUrz8fCR3TkrWDRYSb0Ojr0+kx06DFRKBjl/e0Zc5HQwegwX0fRsa0r0WGMbB+37yz+9pkP1bHRu9Q9e+9Xnz/4ZfsA+f37L6nrrz0gblevZqMjM8bFQyk6bAzUnsSb45ltqt9elebfUlX99qqkVBjVvQ4AgJWsPB8LH9GRt4Cjw9DbOuXoiJYnIiEdHW5fZmwpOlwkmLF2XRwJ0v5K+yrvx9LbFCU6DPPKVM8efcPebmVuu4p9WYfHyyfetw+fS9vVo/HoiL9OTvTtdn50xHGSComZxfJ+oqsW8ddStMTH0PtyD4ZH+0mGRrQfP3DK4/3jpcOi2joAABCL5lHFQHTkLbzoMITwMJP+ODrMRL7u6EhEQl+bo6OvcnSMRtERnU9nDW8btVc1TGycHT9vP+7aOpQYc2DwkF3uL2tEU9FRWhaFRhQg0qQ9WuaPK60XwiWxLB0dqf0kttPKt10ljxPHUHp5rXUAACAWzaOKgejIW5jRYSTCI5r0m+gw67LREUVCN6Ijsz/90Xzdreg4OnLaPkRu3vxvx8BOe5uViQvzpoDpsZcPPq6Oj96dWQ4AANC6aB5VDERH3sKNDiMVHfGEvnp0lLfvSnTYZ070/kb3dDw6bto1oV4/9SN7lSNeduPgQRsdozv2JsYaz9z5WktXOwAAACorz8nCR3TkLezo8FSNjlIkGP42qUjY2OboEPfXvegwD46nb6Uyz3DMnfi+GujX5+KNNVc4To3dk1gGAADQPuU5WfiIjrwVMzr0RN/cvrRtqxAd/viuRIeLolJ0mH3EP4d8meAwt1aZz4e2jZTes0O6tQoAACBf0TyqGIiOvBU4OvbUjg4XCdsTkWD+UPmR4K5M1IyOgTr3F0XHaBeiI44M847kb57+qXrt1A/VrcN3imMBAADyVZ7HhY/oyFtho8O8T8eO7deqAT2xT0SHC4WYiYQd23faINikt4tjwuzPfwleO25Hen/esa0BNT6+Lxq3RY+L9+fWpR90t3Fioibz88jHDYM3q/PXT6mLNz6sJvfer3ZvHxPHAQAA5C85Jwsb0ZG3wkbHuI6Ea3fuUlu3Ru/6XQ4FQ2/jPjfjdqZiwo7z9mfH6Zi49trk/rLRsUXtNeN2Dtpx0bbuWGa9Fx0mYsxxzbuoZ38eAAAAvS6aRxUD0ZG3wkbHdbuG1No169UG84Z/LhLKsVD+fNfgkFq9ao3+w7Mx2lYvM1c8zBg/Oq67blh/08n9+dFhx2lm3Jo16+wrV/lXNuw47+td+vzWrF6r1q3doJfFPwcAAICVojx/Cl+o0TGkJqdn1exs0tTh7Nihs9PJcdOTaig1ppt67kpHyaYoLuLbnMzzFTYS9LpN5lkM/bEUE/rzWlc64vMY37PPXsEwz3+Yqyfm9ilzPn7EmG250gEAAFa28vwpfMW50hHHhR8edlkiMibUVGDh0VPPdJRjofx59CpX2+0zHXZbvUy60lHrmQ47TjPjtm/fqSNG79OLDDvO+7obz3TUYt6p/Myee9VDNz+ivn77S+qtMz9Tr5/+sXr+2Dv2a7NO2g4AAKBx5flT+IoTHXFQTJ8dEtaVRXEyrSaH5fWdVtjokF69KgoFQ2/jPo9futZsmxjn7c+O05FQ8yVzNRM7fsSUjmXWe9HRjVevqmR853516cBl9eqpD+yrW8XeOP0T+xK7T90xr9656+d22QvHvquODB8T9wMAAFC/aB5VDERH3noqOkrB4W1nY0JHgtnWXOGIY8Lsz3/1qvqiY8Be6bDj+vW4eH9unX/lI4TouP7aA+pzn3hMvX3mw1JoPH3nK+q+fZ9W123N/ne6e/ycHfOZm6Yz6wAAABpTno+FrzjRMXHRPLMxpSaEdb56x3VK70VHary9Hcrc5qQ/7/X36fAdGT5u34k8jo3LB6/U9SaB5v09Xjn5A3EdAABA/crzuPCFHR1RQMTquHpxeCoae3FCXt8FBY4OcwWjRnR4VybKkdC770geu3ffA6XYeOLIcw3dLjV/clF9++hb4joAAID6RfOoYijQ7VXDk2q6WlDEwcGrVzUnnvSbz+2kXowEw9+mG9HhrpyUoiP+GXTGV257vhQc5nYpaUwl8TuaTx96QlwPAABQv/KcLHwFig4tel5DuHUqDpKAbquKhR0dZtLvVI2OTVEk+KFgmG0SkbChzdEh7q970fHwJ75UCo7jo3eLYyoZ2jZir3KYbe/ac584BgAAoH7lOVn4eiA6Ag4OI9zo8ILDMJN+/0HtytFRPl5XokN/NF+b2786GR3m5W7j4JgcvyCOqeTQdUfUt+581W772OFviGMguDCvlpaX1PwFYR0AACteNI8qhgJFh7t9KvHqVYEHhxFmdCSCQ2+vxdFhPmajI3oVqW5Ex6ZAouOLh2ZtNJh4SK8zL5mbXha7eOPDpVjhVasaRHQAAFBFNI8qhlCjw73JX0I2LJIPmqcE8mxHeNEhBIdhJv0VX+K2WnSM+ZGwqc3RsalydOj9meiw+8n8PNrvpRPv23AwL5GbXnfwuiP2VakemfiqfQWrC/svqS/d8qT6zskFu803b59TJ8cmM9tVdWVBLS8vqBlp3UpBdAAAUEU0jyqGYt1eVUQBR4fezmMm/VF0mGcm3Jv0VYoOFwtGKTr0dmIk2GMWPzoev/VZGxDm1aqk9bftPqG+cHBGfe22F6yZW56270x+dOSMOL4mooPoAACgqvJ8LHxER94KFh3lSX0mOio8TB6P62R0mLFRdGzvWHTcOnzURoe5orF7+5g4pl1mFpd1cPh0fFSagPtxUvp8Ri142y/NnU9uUxrrHePqvDqXHpPaz/LiTHRu+mM8Jv46PufSsez5uu2M1P5L+0mcR+r7K33Plb6f82r+qvT9ReMXrvjLnBrnVe3nkv7vUt5/dB7ldYQSAKATyvOx8BEdeSM6zDi9TdGjw4hf8tZcyZDWt5UfE5Y8wU5EQGnC7G3nJtn+dufmljIT42hC7R8vmrhnt/OOp8UT8fQEf2Yxe+7Sdv6yzHmVAsHbl/0ey2PsNmI4+MePpWNEn9diedvsz6W8PnMcfYx4P4n/BnbsAtEBAOiA8nwsfERH3ogOM05v0wvRYcTh8eLx99SA/nlJY9pCmjibZYkJtplEe5Pk1IQ8lpwwV7oKkFwuTua19ATbfi2MS0vvT94uFVYuOpLnmo6v1M9AM/tOx5lVunKSWm5V+rlE0t93Wfp8AADolPJ8LHxER96IDjNOb9Mr0WHcvvuEeu7om+rVUx+ow0N3iGNaJv7feiEy/Im7uE1quZ14S1cBkpP1ShP39OS78mTcrdMT+ZJ0dAjbJZaLkZCd5Jttyl9nI8RXOqf0sav8XMrrzbbCvu3P16yrsj0AAG1Xno+Fj+jIG9Fhxulteik6jJHt4/adxd8+86E6NnqXumfv/erzB79sHyC/f/8ldf21B8Tt6lYhIPwJtvk88X/mQ4mOeILuLRevdKS3Sy+vMzrs9xfv23wu7Dcp2kciPmpFR8z+LM222fiw3yPxAQDomPJ8LHxER96IDjNOb9Nr0WGYV6Z69ugb9nYrc9tV7Ms6PF4+8b59+Fzari6VAsJMju0E2/wf/dT6CtskJ/iVbiNKLrfb+FdRLDdZ9yb1UjxIt2bVFx2pc6s3OuyyaJzZb6VbpDISP69KPxeJdA6xRvYDAEAryvOx8BEdeSM6zDi9TS9Fx/C2UXtVw8TG2fHz9uOurUOJMQcGD9nl/rKGiBNuw02w54T/ox//X3h/wu+W+ZPg6P/IJ/ediQx7/OTEuvR/8mtERyZ+3L4y0ZHaf7QsvV090RGd29LcvJ7wJ6MrOme3TO9vwd8udZ7Zn4s+lnuQXHowPjqH8phoHdEBAEAt0sQYrSE6zDi9Ta9Ex9GR0/YhcvPmfzsGdtrbrExcmDcFTI+9fPBxdXz07szyesUT88REXJOiwYon0XF8ONIEuBQQscxVBy2OBcdMstORIUZHvDzeVsfGjDmecKUjMS71fTYSHfG5SjHiR4f//WSOVxpfHhPvL3me/nGi8/HXERwAAFQnTYzRmg5FR/uNj5vJ/3ZxnS/0ce10064J9fqpH9mrHPGyGwcP2ugY3bE3MdZ45s7XWrvaUYGdGPtXJWLpKww5qBQZjWrXfkrEQAEAAB1n/8eyo782t1X195v/0ezWa9LEGK0hOpxeiA7z4Hj6VirzDMfcie+rgf5tibHmCsepsXsSy9qjwv/pN3KPjvbdOtTu6KgYYgAAoHNKwbE5opeZiTDRkT+iw+mF6DDBYW6tMp8PbRspvWeHdGtVbqqFRTujw1w5SESBu42oTRP79kYHz1EAABAEMTrMLfzJ6OBB8vYjOpxGxv3V5g1qccPH1LsbPq6e27BKNL99s3q+b424Li8/ufaA+l/3fUr9j7tPqv9l/IL6L+Pn1NsDg+LY9rtF/dcv/IX6379wUf3nA9J67di9ev296t9J6xoWH8/zF2fUD8Wxjft3n9T7++Qt4rpG2P3oc/u///kecT1QRN/T//Y9v3GV2iH8GwkARWKCI+YvDyc6htTk9KyanU2aOpwad3gqM2Z2elIN+WO6jOhw6hk3rP2/1v+JUmv/AABWqD8sff7/059/btM68d9LAPAn9EXgn3vIVzqGzk7L4ZEwoaYCCw+iw6k1zvwfvf/n2j/yfvECAIwvbCQ8AGT1bd4cGHNOkfI5Rq9Ymn610bBvr4qCYvrskLCuLIqTKTUhrOsGosOpNs4Ex/97XaXgKP9fPwDofdK/eX+o7ti8Sfz3E8DKtXHTpgD0qU1Gn2+z1Wc+btpsx2zY2Jc4d6Kj/XKJjrGx/bk7ePAWtXfvAXGdrx3j/nrH1swv2f/Puj9W/3XTx9UbWzer72zrB4AV4fsDm9T/Y+Ofqf9vKj7+tn+d+O8ngBVs/Pow7HHs5/sEbr137iFHx8RF88xGjZgYnlTTdYRJJxEdTrVx/1r/MvV/uZrnOvaPJv9wAsBK8p/6ViX+XTRfS+MArFyjY9cHbp/9OLZHn6/hnXto0RGFRmxaTQ4L41xolMZdnMiO6SKiw6k27kcDGxO/XP+XzavFcQCwUry3dZP+97B8tcP8zxlpHICVa2Q0FNdXNGrP9Qa1Z8+NiXMP+vaqOC5qREUUKhUCpQuIDqfauFe39Xu/XP9Qvb5jQBwHACuFudUqDg7DfC2NA7ByyQHQTT0SHVp9z2vU9+xHpxAdTrVx6V+urxAdAFY4ogNALWZCHyb/Fit9rnuIjk4gOhyiAwDqR3QAqCU72Q9JFB3R8xwFiw73RoDVYyJ+U0FevaplKyU6rv+Ll9WBb/9XdfM7vxPtf/gNcTsAyBPRAaCW0bEbApCOjaQoOEKODvcmfwnZkIjfMNAX0itXGUSHE2p03Pj1j9RNb/8fVd34xZ+o8RMPVrXv5tvV+J69K5b0swXQPKIDQC3SJD8M5durCnmlo6CIDifU6DBXM6TQaMYNn/+eOCFfCaSfLYDmER0AapEn/N1Ujo1SdOjl8dUO/9yJjvYjOpzQo+PgV/6uJWYfB77zv4sT8pVA+tkCaB7RAaAWeeLfadnQSLPnS3TkjuhwQo8OaSLdiPhqh7RuJZB+tgCaR3QAqEWa4IfFvTmgPV+iI29Eh9OW6Lj7SfX9959R9x4Q1qUceGhOffD2V9Xdwjof0dEe0s8WQPOIDgC1ZCf5oSE6OonocNoSHQe+oN74t8vqo5/9tXqgSniY4PhXHy2rf/vKF9QBYb2v09Hx5OJ/Uf/lB0+pv3jtl2p5edn6T3/3M/XVPfujMV/9WfJrzYxNLzP7+ffzD5e+7jbpZwugeUQHgFrk2506TYqNGNHRSUSH05boMGqERxQc/5P6Vy/VDg6jG9FhQqMUDOMPqjevLtsQMV/vGfum+un/9J/Uj792Y2K92SZelhkTAOlnC6B5RAeAWuQI6DQpNmJERycRHU7bosOoEB6NBofRlei4+pZ6YPyG8vLU1Q3/KsbYZ95Sv/qff6I++PH/lFnmX/noNulnC6B5RAeAWuQI6AYpOAyio5OIDqet0WGkwqOZ4DC6dXtVYnkqOuytV3GY6HV2vP4YLzPrM/voMulnC6B5RAeAWuQA6AYpOAyio5OIDqft0WHE4fGvftZUcBghRkd0JeNX6o2/uMGON7dRmVuqfvwff6Ve/4t/YW+3CunWKkP62QJoHtEBoBY5ALqF6Og2osPJJToMHR7z/+pX6qdNBIcRYnTEz3EsfvNJHRrl26jMtulloZB+tgCaR3QAqEWe/HcL0dFtRIeTW3S0KMjo0OJXt/LHll7xKv1MSACkny2A5hEdAHoZ0dF+RIdDdETqjQ5zi9W//7v/nLiNKl4W0kvlxqSfLYDmER0Aelk40TGkJqdn1exs0tRhaWxsQk25cdNnh4T13UF0OKFGx00v/t9sLBz8yt+1xEaH3pc0IV8JpJ8tgOYRHQB6WchXOobOTlcNj4mL5TghOtpgpUTH/offLF2laNUN982IE/KVQPrZAmge0QGgl4V9e1V0JUMMiuFJNW2DpMqYLiE6nFCjw9h76KQaP/Fgaw4cESfjK4X0cwXQPKIDQC8rZnS4W7EuTlQZ0z1EhxNydEiTaDRG+rkCaB7RAaCXhRwd0e1TU2oitTy67SpeTnS0DdGBRkg/VwDNIzoA9LLQosN/TmN2dlpNDqfHpCOD6GgbogONkH6uAJpHdADoZUHfXuWe24huo4qW2SiZnlRDpXFER9sQHWiE9HMF0DyiA0AvC/uZjtStVIenhKsfREchdfuXqzSJRmOknyuA5hEdAHpZkaIjeeuVLIT4yCU6Nm/uz934+F61bdt2cZ2vHeOe27Aq8cv1+b414jjf3XffLS4HgF6Q/nfRfC2NA4AiCjo67JWNWiGxQq50SP/x2o3oAIDuIToA9LJwoiOKh+SVi+wrV2URHW1DdABA9xAdAHpZ6LdXFRHR4RAdAFA/ogNALyM62o/ocIgOAKgf0QGglxEd7Ud0OEWPjpELz6j93/q1uunt/0M0+uk5cTsAaAbRAaCXER3tR3Q4XY2OwV1qUFregBtn/kcxNnx7PregBg+erWrrdXvF/QOAj+gA0MuIjvYjOpzuRcc+dfndJfXR92bUEXF9faTIaNbYZ94SjwEAMaIDQC8jOtqP6HC6Fx3akUfVu0vLLYWHFA/NunHufxOP4Xvi/f+i/vP7T4jrAPQ+ogNALyM62o/ocLoaHYYLj6V3H20qPKR4aIV0DB/RAaxsRAeAXkZ0tB/R4XQ9OowWwkMKh1ZIx/ARHcDKRnQA6GVER/sRHU4Q0WE0GR5SOLRCOoaP6ABWNqIDQC8jOtqP6HCCiQ4jDo/5S/J6gRQOrZCO4YujY8vMglpeXrb+09/9e/Wd8wOJcfe9/KvSeuNXL59LrPe3N9IhY44Tr5P2D6A7iA4AvYzoaD+iwwkrOj6r3vjFsvroncvyeoEUDq2QjuGLY8CPBBMYfhj0bfmS+sH7s6X1W85/R/37v/vP6vszW0pf/+p//lXF8emrKSZQCA8gDEQHgF5GdLQf0eEEEx1xcCw29kpWUji0QjqGzwbB376i7h3YXFrWN3Cvev1v/2Pmakal9TYilhfUX23py4w1QfLLv/tRYl2t/QPoHKIDQC8jOtqP6HCCiI4mg8OQwqEV0jF86asQlZabqxc/XP670i1SRhwNcUT4y2Lp2658RAfQfUQHgF4WTnQMqcnpWTU7mzR1ODXu8FRmTGRKTfjjuojocLoeHS0EhyGFQyukY/jqiY74eY74dqpKVyr8MInXmehIX0kBEA6iA0AvC/lKx9DZaRsUifCw0TGtJoe9ZYEhOpyuRsfYJTXfQnAYUji0QjqGT4qOOB5MZEiBUev2KBMpcWikn/cAEBaiA0AvC/v2qgk1paNj+uxQeRnRkZ/eiY59auaD1oLDkMKhFdIxfCY60rc6mWX+MxrpMImvfPhXM+KrIPH6ODriQElf7Xji/R+Iz4AA6CyiA0AvIzraj+hwuhcd2uAuNSgtb8ANf/0bMR6acePc/yYewxcHRRwfRvqh8PTzHFdfeSxxpSP93EalB9P9MZWukgDoLKIDQC8LOTomLgrPaojPdITzPIdBdDhdjY42GP30nBgQzRj7zFviMQAgRnQA6GWhRUcUGrF6rmjED6CHc/WD6HCKHh3Gjt371eDBsy3Zet1ecd8A4CM6APSyoG+vGp5U0yY+Lk7I62NuXOI2rC4iOpxeiA4A6BSiA0AvC/uZjvgVrGrdPhU9+1EzTjqE6HCIDgCoH9EBoJf1RHS45zwy7+nRJUSHQ3QAQP2IDgC9LOjocDFR9bapem/B6iCiwyE6AKB+RAeAXhZOdLhbpBKyVzjiNwz0hXKFI0Z0OEQHANSP6ADQy0K/vaqIiA6H6ACA+hEdAHqZNDFGa4gOh+gAgPoRHQB6mTQxRmuIDofoAID6ER0Aehm3V7Uf0eEQHQBQP6IDQC8jOtqP6HCIjqLZ3CBpHwCaRXQA6DX9Wt+mPrVx48ZwomNNbE2ZNK4AiA6H6ACA+hEdAHpNcNGRCY7V0ce1xQwPosPpanQM7lKD0vIGDH/yKbX/mV+rm9/5nWjkwRfE7QCgGUQHgF4TfHSsJjoypP+Q7dY70bFPXX53SX30vRl1RFxfn32zvxRjwzd2+T2149BkVQND+8T9A4CP6ADQa8K7vWqdWqMjY42NjdVqvYkN/TH6WhofNqLD6V50aEceVe8uLbcUHlJkNGv0odfEYzTkwrxaWl5S8xeEdSvGeTV/dVktL84I64BiIzoA9JrwomO9Dow1avU1q2xsbFinl+mPq1etsjEibxMuosPpanQYLjyW3n20qfCQ4qFZB+Z+Kx6jIUSHRnSgdxEdAHpNaNGxzkXHqo9/XK3VobFh7Rq1juhIkv5DtlvPRYfRQnhI8dAK6RgNKVx0RIGwNHdeWAcgjegA0GuCi451G3RgrFHXfOxjas0116j1OjhMdNjbq4TxoSM6nCCiw2gyPKRwaIV0jIYQHUBPIzoA9JoQo+OP/vCP1Oa+Tfq8NqhNG9bq8+pTa9ZtV1tW/4m4TciIDieY6DDi8Ji/JK8XSOHQCukYaefmltTy8nLJwhVvvRgdM2rBG798dV6dK63rVzOLetniTPTRjYkiwN2mlFjm77fec0kev7Qfu768PLGuIrOvbFTF30P0NSGD3kV0AOg1oUXHeh0dAwMD6qGH/kI98si/VLOzX1YzTzylHrsyp84f2Stus3bthJqandVjY1NqQhzXeUSHE1Z0fFa98Ytl9dE7l+X1AikcWiEdw2cn+X40uIl7abKfiY5owu/HgJ2ge/uIY6M05spCKQKSy5KT/frOxexnQc3EYzL7aTQQiA6sbEQHgF4TYnT80R/9odrUt1Fds+pj6g//6PdV/56b1N67nlGf/xefVVOHk+OHzk7b0EgvDwXR4QQTHXFw6IlruLdX1THhTkWHDYPSZNxJjUlO2A13hUNYVp7I13suyeDJ7ofoABpBdADoNaFFR2XR1Yzps0PlZcOTajrg4DCIDieI6GgyOAwpHFohHaOkdOVAkJjop4JCGl9HdCQn7allTZyLuJ8KgZC+bat8fkQHVjaiA0CvKXJ0TFycVbPTk2ooMS4sRIfT9ehoITgMKRxaIR2jxE7ivVuVJEJ01Jp8Nx8djZ1LpL7oqIzowMpGdADoNUWJDhsYiWc1htTktF52ccKtK0tcDekyosPpanSMXVLzLQSHIYVDK6RjlJkJd/p2pZTURD/z3IWgqeho4lwi7YgO+ZYtogMrAdEBoNeEHB3JmJhWk8P++vLD44nbqw5PBRUeRIfTvejYp2Y+aC04DCkcWiEdw2cDIXWF4dzcQnlin57o26/TE3A9cfcio7noaOJcrAr7SRy/OjveC6nSrVhEB1YAogNArynM7VXu+Q1zZSNa5qKj9HVZSLddER1O96JDG9ylBqXlDZDCoRXSMdKiyb7Hn7BLE30XHuVtkuubjQ6j4XOR9uOdX32hEF3tiI9ptkl+D0QHehfRAaC2LQVSpGc64leqim+xKt9elR5HdLRBT0VHG9zw/G/EeGjGgbnfiscAgBjRAaA2aXIfqiJHR6W4qBwj3UB0OEWPjpEHXxIDohmjD70mHgMAYkQHgNqkyX2oChQd0rMa7pYrf1kUJunnP7qH6HCKHh3G1pEDasehyZYMDO0T9w0APqIDQG3S5D5UoUZH+h3GjQrvMh4/61FrXJcQHU4vRAcAdArRAaA2aXIfqmLdXlVERIdDdABA/YgOALVJk/tQER15IzocogMA6kd0AKhNmtyHiujIG9HhEB0AUD+iA0Bt0uQ+VERH3gobHZ3EL1cASOLfRQC1SZP7UBEdeeNKh8OVDgCoH9EBoDZpch8qoiNvRIdDdABA/YgOALVJk/tQER15IzocogMA6kd0AKhNmtyHiujIG9HhEB0AUD+iA0Bt0uQ+VERH3ogOh+gAgPoRHQBqkyb3oSI68kZ0OEWPjuFPPqX2P/NrdfM7vxONPPiCuB0ANIPoAFCbNLkPFdGRN6LD6Wp0DO5Sg9LyBuyb/aUYG76xy++pHYcmqxoY2ifuHwB8RAeA2qTJfaiIjrwRHU73omOfuvzukvroezPqiLi+PlJkNGv0odfEYwBAjOgAUJs0uQ8V0ZE3osPpXnRoRx5V7y4ttxQeUjw068Dcb8VjdNZ5NX91WS0vzgjrAHQb0QGgNmlyH6pQo2NITU7PqtnZpKnD/pgJNZVanzA9qYYS++wOosPpanQYLjyW3n20qfCQ4qEV0jE6i+gAQkZ0AKhNmtyHqjhXOobOTtuYSIaHJIqR6bNDwrrOIzqcrkeH0UJ4SOHQCukYRXdubkktX51X54R1ABpDdACoTZrch6pIt1fVFxNRnEyryWF5facRHU4Q0WE0GR5SOLRCOkbRER1A+xAdAGqTJveh6rXocLdcXZwQ1nUH0eEEEx1GHB7zl+T1AikcWiEdwzez6G59urKglpf159aSmr/gjbswr5bMsivmo1m/oGZK+5hRC6XthG3d7VVLc+e9Ze64FbcxpP26W7X85cQH0BKiA0Bt0uQ+VMWJjomL5lmNKTUhrIuFdpXDIDqcsKLjs+qNXyyrj965LK8XSOHQCukYvtLk33vmwl5J8EPARocwwXfLE0Hh4mXhSjwuGx2l0Elskz2ev825uYXSeq50AO1DdACoTZrchyrs6IhCI1YrJsK7ymEQHU4w0REHh55ch3x7lQ2AzAQ+FQouAsohEcnEg7hc2pd/pSQ7ptJ+Y0QH0D5EB4DapMl9qAp0e9XwpJquEhUhXuUwiA4niOhoMjgMKRxaIR3DV1c42FCQb5tKh4hlrlyUoiAVHYnbuJKiMVX26xAdQPsQHQBqkyb3oSrSMx1xWEi3WIV5lcMgOpyuR0cLwWFI4dAK6Ri+rkRH1WAgOoBOIjoA1CZN7kPVG9ER6lUOg+hwuhodY5fUfAvBYUjh0ArpGD45OqKHuEsTfzE66gyWdHRU2Jev0n5jRAfQPkQHgNqkyX2oChQdh6d0WEivXhXuVQ6D6HC6Fx371MwHrQWHIYVDK6Rj+OwEv3Rrk7/Me+6iUijY5cltMw+Fp6PDfZ2OhpnF9PGS+/UfJI+OkX4uBEAziA4AtUmT+1CFGh0uJBLkV66KrnLU86aB3UF0ON2LDm1wlxqUljfghud/I8ZDMw7M/VY8hi++qhDHRyQ1oa92dcIFQsVtM9FRXlbeJr1eS+83ESne9lzxAFpCdACoTZrch6pYt1cVEdHhdDU62mDkwZfEgGjG6EOvicfw1bqVqXVRIFR7RgNA9xAdAGqTJvehSp77TTfd1FWHJw6rWw7fqg7c/Am154Yb1I033awOHzysbrz5ZrXnwH51/c03iNsVFdHhFCE6jK0jB9SOQ5MtGRjaJ+47Lf/oSD0fAiAoRAeA2qTJfaiS575ly5au2rRxk73qsn7DBrV63Tr9caPq27jZfly9fp1au369uF1RER1OUaKjk/KODh76BsJGdACoTZrchyp57tItQMgP0eEQHVl5RUf5GREe+AZCRnQAqE2a3Icqee7SxBj5ITocogMAkogOALVJk/tQJc9dmhgjP0SHQ3QAQBLRAaA2aXIfquS5SxNj5IfocIgOAEgiOgDUJk3uQ5U8d2lijPwQHQ7RAQBJRAeA2qTJfaiS5y5NjJEfosMhOgAgiegAUJs0uQ9V8tyliTHyQ3Q4vRIdw9tG1Zk996qHbn5Eff32l9RbZ36mXj/9Y/X8sXfs12adtB0ApBEdAGqTJvehSp67NDFGfogOp+jRMb5zv7p04LJ69dQH6v27f1HyxumfqBePv6eeumNevXPXz+2yF459Vx0ZPibuB/XZ0r8lQRoDFB3RAaC29MQ+ZMlzlybGyA/R4RQ1Oq6/9oD63CceU2+f+bAUGk/f+Yq6b9+n1XVbs/+d7h4/Z8d85qbpzDrUr1+HRpk8Big6ogNAbdLkPlTJc5cmxsgP0eEUMTqODB9Xcye+X4qNywevqImh28SxvjdP/1S9cvIH4jrUp1//49VvPurgIDrQq4gOALVJk/tQJc9dmhgjP0SHU7TouHffA6XYeOLIcw3dLjV/clF9++hb4jrUxwaHRxoDFB3RAaA2aXIfquS5SxNj5IfocIoUHV+57flScJjbpaQxlTxww2ftdtOHnhDXoz79fZHNmzc72TFA0REdAGqTJvehSp67NDFGfogOpyjR8fAnvlQKjuOjjR1/aNuIvcphtr1rz33iGN/M4rJaXpwR1614JjhsdBhEB3oT0QGgNmlyH6rkuUsTY+SH6HCKEB3m5W7j4JgcvyCOqeTQdUfUt+581W772OFviGPSiA5gZSM6ANQmTe5DlTx3aWKM/BAdThGi44uHZm00mHhIrzMvmZteFrt448OlWGnkVauIjsr6hGVAryE6ANQmTe47STqn+kgTY+SH6HCKEB0vnXjfhoN5idz0uoPXHbGvSvXIxFftK1hd2H9JfemWJ9V3Ti7Ybb55+5w6OTaZ2a4aoqMyEx02PMwrV/HqVehRRAeA2qQQ6CTpnOojTYxz8y9/ov7+Hz5SL3vLXv7oH9Tf//SLyXGeL/707yuv/85H6h/+/ifqi9K6Trj4hHrxxSfU7J8NqT/efIv6y2e+q5588RX12qt/rV6Ze17NP/+CeuHFF9SzL72g3nr2L9TpdeuIjlgRouPxW5+1AWFerUpaf9vuE+oLB2fU1257wZq55Wn7zuRHR86I42spRceVBbW8rD+3ltT8heS4c3NL3vpltTR3PrE+ub2WChl7nNL67P4TauwrfS7l9efV/FVvuX+cC/Nqyd/m6rw65+1TkrjSQXSgRxEdAGqTQqCTyucyMXG4IeJkOhdfVD/5+39QH33HW2Yj5B/UPwjK48x2f69+8i/d1yY0Pnq5/HkcHWZf3QgQHR6Pv/gZ9S/+dED9ybp/oj6+5g/UulUfV2tXrVFrVm1Qq7Zcp/rufkw99vgX1JlN/URHrAjRcevwURsd5orG7u1j4ph2KsWAN7GPJvV+GMyoBX/i7ybwC1f8ryuPz1xNsVFRITzq2dfygpqJx3vr08c5N7fg9qPH+Odr4mSxwegAehTRAaA2KQQ6qXwuUlhUI06k81CKhZfVRzYqogj5h9SVDztOWuaHRgjRcWpafetb0+q0/vyatetV3/oNanDjRrVlzXq17mN6/ZrNau2GnerP/vAP1KY7PqOefubL6u6BnURHrAjRYcQveWuuZEjr28lO1DP/1z+6YpC5mlFpvY0IPwQ8NiLS66rsv+a+KsRKtX1W3a4yogMrAdEBoDYpBDqpfC5SWFQjTqjbzbutytwuZaKhdNuUFw52nRcc5tar5BUQvc5GSXq506Xo+Nixv1Szb7ym3px/Rj318rfUq3Ovqq8+/7p65YlPqz/ftkGtP/k59XUdHSc3cqWjpCjRYcTh8eLx99RA/1ZxTDtkrkJUXB5dLSjfuuRP8KMJf3KZk75VyiMGQq19VbstqnSsbLREV0g04XutqPRyuUDvIjoA1CaFQCeVz0UKi2rECXWbRTHhh4G52uFdzYhDoko01Hr2o+O86Nh45jH13DNX1P3r16lrPv77as3qtWrb//AV9cy3H1OTH9djz06rWR0dd6xaT3TEihQdxu27T6jnjr6pXj31gTo8dIc4plX1REf8DEXi9iTxqkI5TErraoVCRc3vq/zMh3yFpe744H06sAIQHQBqk0Kgk8rnIoVFNeKEOhepZzOc+GrGRz+Nn+8oj4mvipSfB4luzSoFjKRTVzu86Fh76rL61txX1QM6KlZd88dqzcYtat3U19W3v/VFdXzNOrV+8q/Us7MPqD+/5k+JjljRosMY2T5u31n87TMfqmOjd6l79t6vPn/wy/YB8vv3X1LXX3tA3K5ecnT4z0BIgVEpOiJ20h/HQZO3NsWa31f6OQ6PvSJS4RYuXxwdNjyIDvQmogNAbVIIdFL5XKSwqEacULdd+iHycjwkHixPrNPx8X78nIYcLInnOzrNi46PH/8X6sm3n1QP/rMNas01H1Ortwyqf/bQN9Xz37ysbtmwXm2853H14jOPqPsmPkl0xIoYHYZ5Zapnj75hb7cyt13FTHi8fOJ79uFzabt6xLcd+QERLStPytNhEl9J8K9A+JP7RCjEVxdSVyhmFlP7j9dX3Vf23Gxc2HPTx0k8HO5Fh46VBT+Q6o2OTZqNDhMcRAd6E9EBoDYpBDqpfC5SWFQjTqjbLf0chh8KpVewEqLCBohZHt+OFT98Xlk2YnLiRcfOP7+ivvrMFfXAmu1q5+p16pr1m9TIvZfVX3/zC+rolk1q/ZlH1PNPPKAurP040RErWnQMbxu1VzVMbJwdP28/7to6lBhzYPCQXe4va0QcFNFkPpaekJdvdYpiYyZ5pcNO4r3tU4GRuK3JyUSOFx3+uOy+4vAo86/IZJdr9gqJv66O4DBMdNjw0MFhw8NbB/QIogNAbVIIdFL5XKSwqEacUHfSv/xidDtUKT68Zz3iKyTm1qvSFQ8XFvFVjtJD6umrKTnzomP9LZ9X33z3ZfXCd55XL869oF56+UX1wlNvqL9+8mF1ZucWte74w+rJb31Znd3Ag+QlRYqOoyOn7UPk5s3/dgzstLdZmbgwbwqYHnv54OPq+Gj3r8j0nE0uNrjSgR5GdACoTQqBTiqfixQW1YgT6pyUX43KXL2Ir1r4kZFlHyD/+/SzHXpdQNGx+o5H1DNPfUOd+tg/VqPX/IH62Kpr1Ma1W9X2LatU/x//vlp71yPqya9fVif7R4mOWFGi46ZdE+r1Uz+yVzniZTcOHrTRMbpjb2Ks8cydr7V0tQMVxMFBdKCHER0AapNCoJPK5yKFRTXihLrN4levEoMgceuVdIuV9+pXf/+R+ijA6Ojfsk2tW7dafexjv68+ds2fqo+vWaPWrF+vNm7aqPq3bVFr/vkT6snHP6Pu3HaY6IgVJTrMg+PpW6nMMxxzJ76vBvq3JcaaKxynxu5JLEObEB1YAYgOALVJIdBJ5XORwqIacULdLfEtVu6ZD/99OqKXy60UFt7D50K05MKLjk0b+tU6/fGaVX+mrllzjfr4ujXqtslPqseeX1RPfvOb6vmX/lo9/tRjatUn7iU6YkWJDhMc5tYq8/nQtpHSe3ZIt1YhR4noENYDPYDoAFCbFAKdVD4XKSyqESfUaMj6azaotavXqzVr16lV63V8bFxtI2TzqvVq02q9fu0atWH1GrXpmjVER6wo0RFHhnlH8jdP/1S9duqH6tbhO8WxyFEpOoR1QI8gOgAUiRQW1UiTaDRmnY6LtWvW2ehYvW6tDo81av26DWrzuj61US9ft/oaTYfI6nVER6wo0XHD4M3q/PVT6uKND6vJvfer3dvHxHHIWeJ9OoDeRHQAKBIpLKqRJtFozLo1LjrWrNXhsVatNlc2NmxSmzdtVRvW6nXX/JlaraPjmrUbiI5YUaIDgfCjg/BAjyI6ANQm3fLUSeVzkcKiGmkSjUats9GxVkfHWvMQubZ+3Xq1cX2fWm/WrV5ll63WARJ0dHQSv1zRkD79D50h/KMH9Ar+XQRQm/+7sBvK5yKFRTXyJBoNWafDwnzU0bFu9RrHXAExyzUdIOajuQrClQ4n/cuVKx2oKhEcyX/0gF5BdACoLf37sNPK5yKFRTWZCTQat859NNFhwyP6aK98eNFhxhAdTq9Ex+7tI2pyzz3qoZu/qJ6843n11t0/VW+c+bF66fgb9muzTtoOjar8jx7QK4gOALWlfx92WvlcpLCoJjF5RnPS0RGz6010OPpzosMpenSM79qrPnPjZftqVt+/+xclJjheOPmuevroi+rtsz+zy14+8aa6YzeveNWayv/oAb2C6ABQW/r3YaeVz0UKi2oyE2i0JBkdUWjE4bFOIzqcokbHvqHr1ecOPmKvaMSh8a1jL6k/v+GTamhr9r/TPeN/bsf8xYF/mVmHRlT+Rw/oFUQHgNrSvw87rXwuUlhUI02c0RxzZaNMRwbR0VvRYa5WvHT6/VJsfOHwX6mJkcPiWN+bd/1EvXryA3Ed6lX5Hz2gVxAdAGpL/z7stPK5SGFRjTR5RvP88Eiui8KD6HCKFh337P8fSrHxtVufbeh2qVdO/EC9eOx1cR3qVfkfPaBXEB0Aakv/Puy08rlIYVFNcmKcj3/4h3/oKOkcOikbHGVEh1Ok6PjGbd8uBYe5XUoaU8mnDvwLu91fHnxcXI96Vf5HD+gVRAeAIpHCohppYoz8EB1OUaLj4UOPloLjxPhJcUwlw9t226scZltexao1/To0fNIYoOiIDgBFIoVFNdLEGPkhOpwiRIcJhTg4/nzvPxfHVHJo94R65vjLdtu/uuWr4pg8zCwuq+XFGXFdkUWxYT7nSgd6F9EBoLb492C3lM9FCotqpIkx8kN0OEWIjkcOPWGjwcRDep15ydz0stgDNz1UipVOv2pV70ZHxH7dl1wH9AqiA0BtUgh0knRO9ZEmxsjJGqKjpAjR8eKp92w4mJfITa8zVzLMq1I9OjFrX8Hq/v2X1Jdu/Zp6+cz37DZP3fmCOrn3VGa7vPVqdGzpd9FhgqNvszgGKDqiA0BtUgh0knRO9REnx8gN0eEUITq+esszNiDMq1VJ6+8cOao+P/GY+ubtf219+cjX7TuTHxs7Lo7vhN6ODh0bJjiIDvQoogNAbVIIdJJ0TvWRJsbID9HhFCE6bh++w0aHuaIxsmNUHNNuW2YW1PKyDgfnP//tK+regWiS3Tdwr3r9b/9jYv3CleT2YnRcSe5z+eq8OuevvzCvlpaX1PwV89GMWVAz/vpYej+J45xX81e9dVrp3Oz+vXX+8aut80S3VxEd6G1EB4DapBDoJOmc6iNNjJEfosMpQnQY8UvemisZ0vp2uu/lX6n/9Hf/Xn3n/ID92kTG/MK8jY6+LV9SP1z+O/Wf33+ivI2bsC/NnS8tS0fHubklPZnXQXHBbROP8cMinvhXmPCXx/j7mVELpePoz832foToQImiI1pXjiMdJ4vxcaqtq4JnOtCjiA4AtUkh0EnSOdVHmhgjP0SHU5ToMOLweOHku2pgy1ZxTKviqPj+jPwX2gSJf9UjZqPCi4VkdKQn9bHUchcd2XEee5VDvgKSPoeETKzUuS6lz/+a6ECPIjoA1JaOgE6Tzqk+0sQY+SE6nCJFh2Ge33jh6GvqtVM/VIdHbxHHtGLL+e+oX/7dj9RfbekT1z/x/n9Rv3r5XHadnbiXYyARHal1PjOudIWkrsl/+fYp/8qKkdiXILqykroSUsc63yYtDo/Sq1gBPYboAFCbFAKdJJ1TfaSJMfJDdDhFiw5jdOeYfWfxt+7+qTq+54T65/vutQ+SmwfIzatX7Ru6XtyuHuFHR8zdSuXFR63oiHjPfGQCo9q6SOJKR4v/6AGhIjoA1JaOgE6Tzqk+0sQYjVmzZo0Vf73OW5dGdDhFjA7DvDKVueJhbrcyt13FTHiYl9g1D59L29XS/dur6o2OiH/cqrdXpVW5TavqupLW/9EDQkV0AKgt/j3YLdI51UeaGKMxpehYEwXHurXrnPTYNURHrGjRsXv7iL2qYWLDvDu5+XjtzsHEmJt23WyX+8sa0eyD5H5UJKPDBUEqKOwYPxIqREdiXOnB8EgyNNzVD/8qRTxe73vBvwrih0W1dSn95iVz++N/8KKfD9BriA4AtfkB0A3SOdUnOSlGM1avXp2IjvXr1qn1LjzK48x6oqOkSNFhr26cfNe++d/2bTvsbVYmLsybAqbHfuHwX6kT4yczy+tlwsPeZuT4t1TF4VFeXyEUUrcoReFR3mfmFqY6oyOxj8yVjfJtV5FyWCReEtePimrrUgbi6OgfUH1EB3oU0QGgtnQEdJp0TvXxJ895+e9/8cWeFH9/NjpWR9FhYmPDuvU6PNaXrnjYcTZKVhMdsaJEx83XfUK9fvpH9ipHvCy+ojF27Z7EWOOv73ilpasdkJWudNirHUQHehPRAaA2PwC6QTqn+sQT5zxJE/ZeEH9/ySsd66Lg0J+vXbVGf9ThsW6D+viaj6k/XvUHREesKNFhHhxP30plnuF46fT7mZfPNVc4Tu07nVgGAPUiOgD0Mj8O8iJN2HtB/P1Jz3SY4FjzsVVq3ep1asP6TepP1vyx+icf/z8RHbGiRIcJDnNrlfl8eNvu0nt2SLdWAUAriA4AvcyPg7xIE/ase9U//r3fU7+Xtveo+qc1x25W/+R72XX/+Dl/my+q//b+aH/26+cOeNsnpberJP7+4uCIvzbRsVp/fY0JjzXmVqtNavS/36T+9FufIzpiRYmOODLMO5K/eddP7Pt03DJ2qzgWAFpBdADoZfFEOU/ShD0rioV/9MhnvGWfUf9krwkBLypcLPjj/ukjm71YcNGxd7P6R6lgkaKj3sCQSN9r7BodHn+2bp1atW6Djo4+teonl9Uf/utPEx2xokTHgcGb1Pl9U+qBmx5SZ/ddUCM7RsVxANAqogNAL5MmzO0mTdizpOgoL49iwUXI/femxrig+L0D+nM3/v6jeqx/BaQD0bHGXPVwVz5W669XrVMf2z6g/vTKOfWHi/erPzs9RHTEihIdANApRAeA2qSHuztJOqf6ZCbOOZAm7FmVoiO+krG5eii4deXouDfazguUvKJj3br4Faqi4Fi9eo3a8PG1qv/P1uvP16qPf/Co+j+/e1T9wZZVREeM6ACAJKIDQG1SCHSSdE71iSfOeZIm7Fm1ouP33McD6r9Nrbe+d1T9o1R0RJ+Xx+cVHeZ9OewbAZro0MGxetVqe6Vjw+p1avXoHvUnH35B/f7T+9XHNvE+HSVEBwAkER0AapNCoJOkc6qPHwd5kSbsWZWjIw6ExqMjCpZ4n1J0ZCVvyaom/v7Wr4/ek8PcWrV61Rq16prVatVaHR8b9dfHTqjfv/oX6s8+v83GCdHhEB0AkER0AKhNCoFOks6pPn4c5EWasGflcaUjXh5tk+eVDvMxurVKB8eq1Wqd/nzj+rVq1Z4J9Qf/9gvqT751g+pft57oiPVKdAxvG1Vn9tyrHrr5EfX1219Sb535mXr99I/V88fesV+bddJ2AJBGdACoTQqBTpLOqT7xxDlP0oQ9q3J02FjQ4RCFQoUrEW5dJjo0s72Ji7yiI37XcRsda3R06PDYqD/fqpdds2Fc/eHfPqr+8Psn1Pb1REdJ0aNjfOd+denAZfXqqQ/U+3f/ouSN0z9RLx5/Tz11x7x6566f22UvHPuuOjJ8TNwPAMSIDgC1SSHQSdI51SeeOOdJmrBnVYgOdwWj/IxGMihi5aAQxpjA0F/nFx3mY/QGgTY61qxS69esU32rN6mNY7vVxpe+oP7pTz6l/uRAH9ERK2p0XH/tAfW5Tzym3j7zYSk0nr7zFXXfvk+r67Zm/zvdPX7OjvnMTdOZdQDgIzoA1CaFQCdJ51QfPw7yIk3Ys4ToiIPDu6UqvtXKj4VoWXwFRAoT81K75n078omO+FWr1qxdrVZrq9at0ss2qvWrBtT6Df8XtX71TvWP/s1fqt//G96no6SI0XFk+LiaO/H9UmxcPnhFTQzdJo71vXn6p+qVkz8Q1wFAjOgAUJsUAp0knVN9/DjIizRhz3KxkCJGgQuGMv85D/lqSBwr6eiQ1Bsi/ve4xlzpiK1brdauWqvW/dl6tWb1P1OrV/WrTau2qX/6zl8RHbGiRce9+x4oxcYTR55r6Hap+ZOL6ttH3xLXAUCM6ABQmxQCnSSdU338iXNepAl7L4i/vzXWGv25s0772DVqzR99TK3601XqY6vWqdWb16j1u1YTHbEiRcdXbnu+FBzmdilpTCUP3PBZu930oSfE9QAQIzoA1CaFQCdJ51QfPw7yIk3Ye0H8/a3WTHiYz9etM69mpT+uWqPWfWyVWnPNGrXKvF/HBh0i/URHSVGi4+FPfKkUHMdHGzv+0LYRe5XDbHvXnvvEMQ25MK+WlpfU/AVh3YpxXs1fXVbLizPCOqDYiA4AtUkh0EnSOdUnnjjnSZqw94L4+1utI2ONCQ0XHBvXrVMb1q5T67V1a9aptZp5l/JVq3hH8pIiRId5uds4OCbHL4hjKjl03RH1rTtftds+dvgb4piGER0a0YHeRXQAqE0KgU6Szqk+fhzkRZqw94L4+4uvdJhXsVqvbbAfzbuUl6PDvlP5aq50lBQhOr54aNZGg4mH9DrzkrnpZbGLNz5cipW2vmpV4aIjCoSlufPCOgBpRAeA2qQQ6CTpnOrjx0FepAl7L4i/v/jWKiMOD/MxeildFx3mFa50eBAdThGi46UT79twMC+Rm1538Loj9lWpHpn4qn0Fqwv7L6kv3fKk+s7JBbvNN2+fUyfHJjPbtYToAHoa0QGgNikEOkk6p/rEk+U8SRP2XiB9r3FslKPDcS+rS3Q4RYiOx2991gaEebUqaf1tu0+oLxycUV+77QVr5pan7TuTHx05I46vx7m5JbW8vFyycMVbL0bHjFrwxi9fnVfnSuv61cyiXrY4E310Y6IIcLcpJZb5+633XJLHL+3Hri8vT6yryOwrG1Xx9xB9XStkkt/Xcq2fl7/+yoK3XPNu4fJ/fkbiZwG0CdEBoDYpBDpJOqf6+BPmThm581PqU3eOiOuKSIyMCogOpwjRcevwURsd5orG7u1j4ph2spN8PxrcxL00wc1ERzSB9ifAdnLs7SOeLJfGeBPr5LLk5Ly+czH7WVAz8ZjMfhq90tF6dCTHmu9jobw/d87+tqX10s/W7Sfzs9Dfp/8zB9qF6AD+/+3daXwc1cHne+7N534mz+TJAsHGliV1d1V3Vy/aV8sLNiADXrBseQM78SKTAInJkBj8QHgIyJgAYYvNZmR5wTYEsIRZA2EzFosByxgDSUhmcmeeufNiPvfOi3kx99V98b/nnK5qVVcfqbtl9Wb9X3w/krpOVZeM0z6/nKpuykwXAoWkO6fs6CbG+XauRodumxejw1YO0SE5b3krVzJ02ydOFhNuz8RYTYZdE2zdGO8kPLkSoHlsZDKe7bmkBk/6cQodHWM/X/qfhYsKJldAuYy5H9EEYnQQUWa6ECgk3TllRzcxzrdzMTp0j+swOmzlEh2SEx5PLn8OkXBUO+as2ZN4ZxUiRcpE3xMUuvFZREfqxNzz2DjORXucUSLAe9nWyPmd/UrHyEqONyAS+42+QpHYLvdNO3byzyP93IgmEqODiDLThUAh6c4pO7qJcb6da9GRC0aHrZyiQ1rS0o1dXQexb+VRXNF0lXbMWVETW/3/056kiY5RJ9+28UdHbueS4D227rnGMgHRYRsJG+f3SOyX+bIoeQ6jxEcyaBgflB+MDiLKTBcChaQ7p+zoJsb5xugYB91/vInG6Bhba7xDfbL44dVvYFnbGqybtRk3d96lbiDfPHcL5tTN1+6XncRkd8xJsWein3avgca4omMc55LgPU52gTBC97yJY+QaHQmpx0v/sxjd6H+2uf5ORNljdBBRZroQKCTdOWVHNzHON0bHOOj+4000Rkdm8p2pdnY9rS63kpddOWR4PNX9grr5XLdfNtSk2LPCkH4jtGuir372ToDFRNs1sR5fdIzjXJRRjpPlRF9S412T/eSKxWjRYf8ZJMJCbBt0h4InYjR/XsnfyXNzuDs6egfdfw66Pz+iicHoIKLMdCFQSLpzyo5uYpxvjI5x0P3Hm2iMjtE1x9rUqoaMjWs6NqmvDdGmlDHz6xeox92P5Sox2XdxT9h1E317Ij2yT+r28UaHlPO56I7jOr/sJuqJUHCeU+6T+jt4nsM+fjI6xLbk+SYfd/H+eTmBk7x0yvO44P1zyO73IModo4OIMtOFQCHpzik7uolxvjE6xkH3H2+iMTr0ulpXqZvI5Yf/1URq1WVWMi7khwJ6x27rvBvL24q/IkNE5YfRQUSZ6UKgkHTnlB3dxHiidf1URIYXoyM3uv94E43Rke6ShstxYOXLapXDeWxefaeKjraaWSljpd8v3X/Wqx1ENDkxOogoM10IFJLunLKjmxjnG1c6xkH3H2+iMTrSyRvHvZdSyXs4+rqPIBKOpYyVKxwr29elPEZElC1GBxFlpguBUhVGWAiaQRiGAb/fr50c5xOjYxzS/9JNPEZHOhkc8tIq+X1TrDX5mR26S6uIiM4Go4OIMtNN7ksVo6OYGB22cokOJzLkJ5IfXPUa9q98CQubl2rHEhGdDUYHEWWmm9yXKkZHMTE6bOUSHRfXX4pNc36GG+ZtxdpZm9ESb9eOIyI6W4wOIspMN7kvVYyOYmJ02MolOoiICoXRQUSZ6Sb3pYrRUUwlHR2FxH9ciYhS8XWRiDLTTe5LFaOjmLjSYfP+48qVDiKa7BgdRJSZbnJfqhgdxcTosJ0r0SE/qXz1zPW46dLbcf+S3Ti0+nUcWPUKHl/2jPpZbtPtR0Tkxeggosx0k/tSxegoJkaHrdyjo6N2LrbM34Z9K4+qd7dyPL3qVfUWuw9d1Y9n1rypHnti2bNY1LxMexwiIgejg4gy003uSxWjo5gYHbZyjY45dfPxq8vuwOHVbyRD4+Gle7Fh9vVojKb/d7q6Y6Mac+Mlt6ZtIyJyY3QQUWa6yX2pKn50TGaMDls5Rsei5uXqk8id2NjWuT2rDwmUn++xd8WL2m1ERA5GBxFlppvclypGRzExOmzlFh3rZ1+XjI0di3bldLlU/4pBPNp1SLuNiMjB6CCizHST+1LF6CgmRoetnKLjt4sfTwaHvFxKN2Y0ziea37pgh3Y7EZGD0UFEmekm96WK0VFMjA5buUTH1svuTAbH8rbcnr8p1qpWOeS+a2Zu0I4hInIwOogoM93kvlQxOoqJ0WErh+iQb3frBMfajh7tmNEsaFyER5buU/veccXvtGO8egeHMXysHxs123KzCf3HhjHUt0mzjYhKFaODiDLTTe5LFaOjmBgdtnKIjtsW3KOiQcaDd5t8y1zvY44b5m1Nxkou71rF6CCa3BgdRJSZbnJfqhgdxcTosJVDdOzufl6Fg3yLXO+2zsZF6l2pbr/8XvUOVj1zt+DOKx/EnhUDap8HlvRhRfvatP0Kg9FBVI4YHUSUmW5yX6oYHcXE6LCVQ3TcvXCnCgj5blW67YtbunFLZy/uW/yE0nvlw+qTybtaV2vHFw6jg6gcMTqIKDPd5L5UMTqKidFhK4foWNjcpaJDrmi0xNu1YyaSurxqsDft5419QxgeFt8rA+h17aP09GMouV3GRq82OtTxkuOG0N+Tun/KePuxge32zykSUaM9lrR9wLVNcF0ylnoOqccfaxvRZMDoIKLMdJP7UsXoKCZGh60cokNy3vJWrmTotk8kbXSIyfdIDNiTfdcYXRyk75d+7EQYuGJB/ewEzdgrJd5jbewbSB4nEUjuCBHHGkxEh9rmvmdFPKdz3mNtI5osGB1ElJlucl+qGB3FxOiwlUt0SE54PLn8OUTCUe2YiaCNDu+N5SlxoIkJxRMNKky8KyTesBj5OS0AUowVJL0YGGOFQn+umbcRTRaMDiLKTDe5L1WMjmJidNjKKTqkJS3d2NV1EPtWHsUVTVdpx5wtbXR4J+KaFYn0Sb4nDNQ+4lgaKfGQvEzLc7mUV/J4npDRxo3LWMfP9rmJzmGMDiLKTDe5L1WMjmJidNjKLTqk1niH+mTxw6vfwLK2NVg3azNu7rxL3UC+ee4WzKmbr90vW3mNjlFXLtwSKxXZTvxH7jWxzydTdDiS0aJ5nrG2EZ3jGB1ElJlucl+qGB3FxOiwlWN0SPKdqXZ2Pa0ut5KXXTlkeDzV/YK6+Vy3XzbGGx1pY+x4SEaHioHMk3j5fHKfsS+v8nJfUjX25VWpPGGU9Taicxejg4gy003uSxWjo5gYHbZyi47mWJta1ZCxcU3HJvW1IdqUMmZ+/QL1uPuxXOQeHc7PqRN9tZ87Opw48YRE7+DIcRKrFs7PumhxnkMcy74xPHGc1NBIHMcdOCPj3c/nDYuxthFNFowOIspMN7kvVYyOYmJ02MopOrpaV6mbyOWH/9VEatVlVjIu5IcCesdu67wby9vGd57jio7kY4nQSASIbtKeeMw9LrldEy4pj3mjw3OclP2EkcuuUp/HiSHv45m2EU0WjA4iykw3uS9VjI5iYnTYyiU6Lmm4HAdWvqxWOZzH5tV3quhoq5mVMlb6/dL9Z7XaQUSTF6ODiDLTTe5LFaOjmBgdtnKJDnnjuPdSKnkPR1/3EUTCsZSxcoVjZfu6lMeIiLLF6CCizHST+1LF6CgmRoetXKJDBoe8tEp+3xRrTX5mh+7SKiKis8HoIKLMdJP7UsXoKCZGh61cosOJDPmJ5AdXvYb9K1/Cwual2rFERGeD0UFEmekm96WK0VFMjA5buUTHxfWXYtOcn+GGeVuxdtZmtMTbteOIiM4Wo4OIMtNN7ktV4aMj+KtPCkb3/KWE0WErl+ggIioURgcRZaab3JcqRkcxMTpsjA4iolSMDiLKTDe5L1WMjmJidNgYHUREqRgdRJSZbnJfqko3OvyLLsZ5552n9cNr9Pt46Z7fa89x+fljR3CnZlv1NXtwfHg4/fEJwuiwMTqIiFIxOogoM93kvlSVw0rH67jIFLExp1+zbWy6509jh8XwkTs9265JBknq4xOH0WE7V6KjOdaG1TPX46ZLb8f9S3bj0OrXcWDVK3h82TPqZ7lNtx8RkRejg4gy003uSxWjQ7pmz3ERF8ex5xrX43ceEY8N48idrseq78QRGShJqfskjuNdNUnsc3zPNYmf1XET+zE6bOUeHR21c7Fl/jbsW3lUvaWu4+lVr6rP9Xjoqn48s+ZN9dgTy57FouZl2uMQETkYHURU+nRxMRpGR4IdE8f34Br1s73KkfxZsCMkGQ9CIjJGwiT76EhEC6PDVq7RMaduPn512R04vPqNZGg8vHQvNsy+Ho3R9P9OV3dsVGNuvOTWtG1ERG6MDiIqfbq4GA2jI8m1spG+8mFHyGiXYIk4kT/nEh3yZ0aHrRyjY1HzcvR1H0nGxrbO7Vl9Mrn8UMG9K17UbiMicjA6iCgz3eS+VDE6RjgBcVzd4+Fe0XDu+0h5zOaEhvv7bKJDxg2jw1Zu0bF+9nXJ2NixaFdOl0v1rxjEo12HtNuIiByMDiLKTDe5L1WMjhTOTeXecLAfT72/I8FZFRn5ntGhda5Ex28XP54MDnm5lG7MaK67+Jdqv1sX7NBun2yCLiHLQjgagWmF4A8asKwA6qM+RCIGAuIxXzSOqngTApEahMJivKSOE0IwKMnv5YtaxCXxIqfI7YIcp8amCSGsBJWQEhL7imML8quUGCNeOBVxzkIoKJ5Lfi+ezyvlHIhywOggosycf2fKAaMj1SiXUWWMDq50aLe5nQvRsfWyO5PBsbwtt+dvirWqVQ6575qZG7RjJhtTTOBN+VWwRHTEIlFEwhFYYgLvr50J40e/xfDpT/FkTy3aGwxUReIiQOQLlwgCxY4BcZxETFgiECJC1P4qf7ajRsWBCAEzIkTV18Rjcps8RiI2JMv+6jxPMjrkOFNEhyL3cx1XPJ+lyN8hCkv8HvIx54WWKFeMDiLKTP4bUy4YHaky3LuR4XFtdLju4XD/zOhwKYfokG936wTH2o4e7ZjRLGhchEeW7lP73nHF77RjJiMZHYb4aoQtRKwI6kV01IVjqAvG4asyYfY8huMfH8eBG2oxrWoKqsMmAiFDxIUh9jcFEQee6DDFRN8QE39DfDXFi5wKETsOZGxYZgwRI66+qvAQ8SBfAJ3okMERkV/Vse3oCCdWU2RwhAwhIL+KYzrhIZ5HBkZEPG9UnH8sHFdfE+GReKElyhWjg4gy807sSxmjI9VocSG4YsF5zLm0KnnDuXeM/TOjQyj36LhtwT0qGmQ8eLfJt8z1Pua4Yd7WZKzk9K5V2wfEX5QB9Oq2nSOCMQuGFUZATOjDhom4P4CY+BoVIWGEa+Db3I+PT36KvT0iJgKVIgrkKkgEUTPxAuYPixcwESvBiLzUKYhowFSrGr5oFD4RKNVmJUzTh4gZQCgSg1HbhGC0BmGxX0wEQ60vJOIjBL84B7/ph98nJnWGHzHx/MFIENUxET7i+FaoVgSFCKNgQMSHCZ94wQybtagxW8ULqDhPS7yAiv3DPvH3VkZIrEG9sIb94mf53K7fmShbjA4iysw7sS9lpRsdhfpE8lRjRIfkiogE76VUToi4tyeOyego8+jY3f28Cgf5FrnebZ2Ni9S7Ut1++b3qHax65m7BnVc+iD0rBtQ+Dyzpw4r2tWn7jWkSREe4IQozaolJfAhmtQ/W9GkI+SpFOIgJfH0bZlz7DD47/SX61vlRGzJRJyb6dYYgvoZCMVSKIAhH4zBrLERFDNRV+dSKRVVNDDOsKlQY58M0LkKNIf4+1dSgum02Ag11IjwMEQwGWipNESQhVMYimCHGTK+4AKYIhdqwiKFYEFPrA/CL48eDrYiHoqgJVcEU5zZdroIEW9BiLhAB04zpUfHC6Z+G4LQfICCO66trgSHONzzjAoT8lWm/N1E2GB1ElJlucl+qSjc6JoLu+UsJo8NWDtFx98KdKiDku1Xpti9u6cYtnb24b/ETSu+VD6tPJu9qXa0dP5beQXfZSiI+evoxNDyE/h7PeHecJL/vxYBr/6G+Tan7JMe6nuNYPzZ6x3iOMzzYmzg38dUZ4/zsnHPyudT52vtJnuPL8R++8BBmbD2Mzz8/g4+Ov4yP/z6Mo6vOE5P8Ofi+fy5qf/U8Pn/3H3jux3eg/7Mz+O8n/oaBt97Ch89uxcWBf8Z3Ij/GzmOnsPep69A5K4wLrRAuuDAuYuM+fHX6beztbcNFF/wfiFTPxJSq8/FDawoWXTuMYydewmtD7+E//+ULnB4awE9qm2H+07fhD1fhu785jf9TPP7O6SGc+cdf8MF7e7HOd4EIlgV47Nmj+Mdf/wu++OoMnjvxCd7aUY+mgA8VrT048vxhHPv75xh852WcPPUhDv7LVQgbYpLIlQ4aJ0YHEWWmm9yXKkZHMTE6bOUQHQubu1R0yBWNlni7dsyESlvp2IT+Y+kBkRIByZBw7WdP/t37bewbEmNSAyYRDe7nSwRH+n6u5xOc2BjY7uznPJ5+7t79/nL6U3zx6u2onu7DzPp6/GTnm3j7z+9jf48Fn/g74d/0MD47cwyfnHoe28PtmGKGUH3HAZz69DP84ca5sCIGevrew1/fOYDVvjCsihr46qYhuuOP+OjM87grWovZtZfADM/AlOkGLKMXL3z9AZ69NYTG1lmIhtZg/x8eQY/lQ7VRj7V738fJ4fexR66sRAKo8fdg/+Hd2BC2sHH3S/jk7eew1DTFcXxofuB1vHJPDJZp4V8HTuLzwUdhhWswrX4Obtg9gP4NYlw0iHA4lPydiXLB6CCizHST+1LF6CgmRoetHKJDct7yVq5k6LZPqLTosB9LWTGQYeCKB7VP+mqIioXkfomY8EaC9/HUfUakRI7zs3aVJJX3eHK/T94bxOUtftTVNyDqa0Jt20144pWPMbR7M+KRGlRd+xg+GB7Eod8147KQH1XhIKZf8nMcfP1dvLpjEeJqQr8dr300gL7rGsWk/ztob5qN3x8ZxtE9v0Rj1TT4QzGEREBE51yBueuewt6h43j65zVomnoeTH8LvlddCd+MBoTn34K3j32Eg/degHAwgB9UTENjsB6VsSni/CK47Y+f4MMj9yEUCOKi2hbMnnEBKgNR+HyXof/dL3DiwA5M930P7SJwvl0VwjzfD2FYUXVju/fPgigbjA4iykw3uS9VjI5iYnTYyiU6JCc8nlz+nHprVN2YCaGLDl1kuCf82n08j6uVD80YQYaAs7Lh/t47Ji06XD+7qW1yZcThiY63X9yJmmAbqkIGYmJy3haqQ++zx/Dx0d8g7K9BxfV9GP7yE+z70RRMqWtFKGoidOHl2H38C3wxcB3qgxEEzBB+efgMTj/2E1iWiWjtz/HCp8fR99MONFQYiBtBWDELZtQPX3Q6dr70Hk5/NoxTg7tQPeN8ER6ViIrj1F+7D6e/eQH3x2ehyogh6q9HW1ULGnx1iIm4CGx8CK+eeB8ffPYmDmyaDtPXiB9WTsNF/ktRf/sg/v7pEE7+7SVsmzMDllENo/pS8XvVJaLH9WdClC1GBxFlppvclypGRzExOmzlFB3SkpZu7Oo6iH0rj+KKpqu0Y87aKAHhjgH5fcqKRalEh3M/h+tx3UrHR4P3IhJpFOFgChfBXxXB7996C58d3oFwuA2Vm5/Ch59+gL0bq+CvqUfYqkXI1419753GiYM/RlgEhSGiI/bQH3D01T34RXQa/vmhx/DN8/eg/sJvIVxtiDGJt9c1rQCMiA+zZ12HYGAzHvjbMXz57oc49trDmFMfQLzraZz6ryexyXce5Af+xcwo6kwRH/Itd0MhTK2swbzmCvzTv7yD//HFSbw79AF29oTQMG0GqkXUzG66BD/5wwm8+/pX+Obz1/Af5ojwCPhhinNM/rkQ5YDRQUSZ6Sb3pYrRUUyMDlu5RYfUGu9Qnyx+ePUbWNa2ButmbcbNnXepG8g3z92COXXztftlbbSAkBN6NXmXqx6e7WOEykgAZHd5ldrHvYqi6O/N8EaH7tIsXXScHvhXBGtqEfbL1YhmRGO/xv7PX8eLOxox1bgQVRuexDvH38OezUHxdycGK9SGUGwDDr/9Od7b3Y1qMakPiuioiq7Hsye+xHOba/Evz7+Dt+6Konruxag0AvDLMX6feqvboCX+u/kiqKiNIjDVj7rtR/HR53twhzkdtVWP4cipk3j+7mbUhYOIWwasqIiGaAC+mCH2s0Rc1GJGLIrpvvV4+uQZDD22BPHaOQiEZqB5ahDTq2tRYd2E/hND+OiuNkQqLxS/W3Xyz4AoF4wOIspMN7kvVYWPDhrB6LCVY3RI8p2pdnY9rS63kpddOWR4PNX9grr5XLdfVtRqgebdqtTEXzzeJwLDu8KgosMTC/Zj7shQAaC7kdy9n71a4V7tSOyXOTrS4sdZ+fBEx388+RWGf70IdVY9ptfEsOPIB/jykz/il/VTYUydisrNu/DhZx9j78aY+uDAWrMeprESz717Bsee/CkqgxGYpngRqzXwk53H8OLDffjs0yHcYH0X040QpjaFcMOuffjmr5/jKqMJMzfsw/4DsxCZGkKwrgPB+/rw4Wt7cavVipmXVmLDAx/gz6ePY+DGOaj+7vdxfl0PvnzzHfzYqMfPD+3Cv1ZH0BlrxXca1uPJowfwp32/EbG0Enteeg4Lgw2YJbZXG9fjzS/+ike2nwczLKJFfYih/edAlANGBxFlppvclypGRzExOmzlFh3NsTa1qiFj45qOTeprQ7QpZcz8+gXqcfdjuVITejlZ96xe6KJBcSb7TnzY0lc1XAHh8IaD5MSCTQaINzK00eE87uwrYqNXs9Lx9fO34b7njuMvp/+GM19+ieE/n8S2Rgvh82fACkUw46cP4dSXp7F/fQOaxc8tgQj8FYsw8N5XeP+J21ARboQpwqPO8iP4owG89uHn+MNTi1ETakRrpBZz4zFcv/sdDJ9+F9vCQXy3Zy9e+fgrfPbnf8PpL07g65OD+HWbibDZJAKhFv5oFOueeB9fnPxI7DOMT776Gkf2bkTAqsJjRz8V4/8h9juDk19/jNf29aAhIp7f2oIn3n4d35w6hVN//hDHT3yCg7fOwPyICJf6GgRiebzvh85pjA4iykw3uS9VjI5iYnTYyik6ulpXqZvI5Yf/1YiJrbzMSsaF/FBA79htnXdjedvEn6f3UqUk7wpDHowWGblSx3nhNoTq56GyWl4m1ST+PC9D3T9diOaaBtQbFQjV1av7PWqiYfxgehAxM4SOmUsxzYjhyjYLleEaGKEQqqd8F02/PIqPP3oTv+lpRywUR03QQp3Yd0rtPEybcQHWGtNwQaWFmU31mOYzYARqUWvOhPWt74jziYnosGCIMJnWcqW6tMow/Jhe7UNj7Lu4cOqFCLfMg29GNSorK1FRVYHW6PdQMaUCLe2L8b3gt2AFp2C67yL4m+ahKvxd/OAH4njiRdbU/O5E2WB0EFFmusl9qWJ0FBOjw1Yu0XFJw+U4sPJltcrhPDavvlNFR1vNrJSx0u+X7j/r1Y50+s/rUPIeHaPdD5I7GR0fiugwp1bCqLMQiYVQGzYRtoLwR8IIhCIiDOTfFwtWVN6PYSIgthuhgPrE8kAoiOpwBH7xc51ZgWVPfoBvTjyN1XETEbHNFC9mvhni2AFD7CuOEYwiKo4XkceLBMXzWAiHYwhZ4nxEZATFcUzTJ14M/QgJEREzsUgMESsGKyz2E+cUi/kRjViIhusQNqMIBoIIBcTxRASF1VvzShFBHNsIwaoUv0+Al1fR+DA6iCgz3eS+VDE6ionRYSuX6JA3jnsvpZL3cPR1H0FETmBdY+UKx8r2dSmPTYixwmIio0NeWpWyomHfRK5bYRkHGR2fvngvZswQk/2IgVAwgLA/IL6KYBATdzNoiXAIw5AvTiEDpoiRoJj4B8VXUwRCwPDB568Wk/sI4u0P4vn3PsGhHTOxtOH7YmxI7CP2Mw0Y8nji+SIiYmpCMjrEMeTxgiERGRHxvTgfccyQDB4hFBQBYojzMOX3IUEEREheIiXjQfy9DMrLsaIqYiIieqxgRPws3+FKnG9YfLVEdESj6h2wIv6Q2MYPB6TxYXQQUWa6yX2pYnQUE6PDVi7RIYNDXlolv2+KtSY/s0N3adXES6wyaO/lcEzoSofzfC4TFBySjI7PX30cPxQT82BAfq5FNfwzfOotZsNyxcAMw6yWL0oGqsWLk2mJcIjLlQQRIiIMDP8MBGZciLteOom//PlrvLKnR4RIAH65AhINIxATQRGLiv0sFR5REQQN4rjRkAgSMS7gN+H3yagRUSAixRLHjURlYIi4EduNgDiWeEFMvOVtRO3jl8/pF+co321LRkysBhFLBIkMGCEgXkhNESIh8ffcsmKIiSCxNL87UTYYHUSUmW5yX6oYHcXE6LCVS3Q4kSE/kfzgqtewf+VLWNi8VDuWMotVfR8tsy4Wk3y/CA8DQTGZD5mWmrDLlYKQIVcjxIuTiIZgWLxYReRqgpzci2CQL1gBPywzhhlTWzCrVhxDTv7FOEOEhoyNkJVYyZBBICf/MbUyISJH7C9jwjDEi19QnIsImrBgqUuu5OqGeD5JPLc8z7AMCbliIs9TxIc817A4TkQcPyxXN9RzJJ5Hnqe8xEo+Li/lki+w3t+bKBuMDiLKzD2pL3WMjmJidNjKJTourr8Um+b8DDfM24q1szajJd6uHUfZCYu4CMrLqAx5KZO8BCpqk5/JEYUlJvty8h6WE/mQCAq5SiEm/3JFwReKoFreSC5iwWfMENsMEQ1RMVZe2iT2k9EiyKiQMSKF5KqGQ8aGPA91fD0ZIZYIi4iICEtGj3j+cFCcq5m4/EqFiYwN8WIqL69KHE+MCQfVWHnO7t+XKBeMDiLKzD2pL3WMjmJidNjKJTpoYhlqJUMGgJzMh9UlS4qMBvE1LF6kZHA40REU5GqCus9DxIURqRUTfhEggSqxLSjiQN70nbifQgaHDIuU6EjhOhcRGCPkz/I53eFhn0cyOuQ9KHZ0iP0T0eEcT4xRseFwHifKDaODiDIT/26VDUZHMZV0dBQS/3GdnKqr/eKFR97ALSb14gVJEbGQ4BorL3kSE3gnOtRlTHJVI1arJv8+n19N+mXUqnss5Iuba3+5TV1G5WVvd78gJtmxkyDOx44OeZmVfM7E18Q5qeMn92Vw0MTg6yIRZeb8+1UsunPKjm5iTPnDlQ6b9x9XrnRMDgERHHIFQsaGesyOgZRVCdckPjHBt6NDrkrIG87Fz4Z8pymxv7wMSgaC+znGlBIeo3NWWhJkbMh7PSTnvNzbHfb+WT4HkRejg4gycyb/xaI7p+zoJsaUP4wO27kSHfKTylfPXI+bLr0d9y/ZjUOrX8eBVa/g8WXPqJ/lNt1+k51zs3XiMqigunk8cb9EYjXBPZl3wkPtK2PAWYVQYSB5xjjjnO/d7MhJo7anPm9udMcjyg2jg4gy04VAIenOKTu6iTHlD6PDVu7R0VE7F1vmb8O+lUfVu1s5nl71qnqL3Yeu6scza95Ujz2x7Fksal6mPQ7J6JBkcCS+T5/QO5x9zuJFzx0GLupSLO1zZkPum3q8lOckyhKjg4gy80ZAoenOKTu6iTHlD6PDVq7RMaduPn512R04vPqNZGg8vHQvNsy+Ho3R9P9OV3dsVGNuvOTWtG0kJSbuTnCMrFh4ufdJf9HL+m1q3WFgUzeei236S6Yykfu4OMf1Pk6UBUYHEWXmjYBC051TdngjeWExOmzlGB2LmperTyJ3YmNb5/asPiRQfr7H3hUvardNOqNd9pTkDQ/7cdd+iUgY2SaDI3FjumuM6/vkGPm9EwXmyPfu6PDulxPn2JJuO1EGjA4iykwXAoWkO6fsMDoKi9FhK7foWD/7umRs7Fi0K6fLpfpXDOLRrkPabZOO/a5UIz8nuG8GV5N/dZnVyJjk/RsqEqzEjeX2dnlTuqXu80jc65E4hmt/e4wKD7G/wuigEsToIKLMvBFQaLpzyg6jo7AYHbZyio7fLn48GRzycindmNE4n2h+64Id2u2TjxMdqVHgcFY5nEutnHGp0SElxsifZUxY4oUwuZqhJPZ1HnNHh4oC+7NCEsdKxMZZR4fkHF+3jSgDRgcRZaYLgULSnVN2GB2FxeiwlUt0bL3szmRwLG/L7fmbYq1qlUPuu2bmBu2YyccJCcfItmRwhOQH8CU449zRISXf5UpQHzIoJFcxnMflfmIfKRklYruznxMuMjpM9fwTEB0T8KJMkxejg4gycwdAMejOKTuMjsJidNjKITrk2906wbG2o0c7ZjQLGhfhkaX71L53XPE77ZjC2IT+Y8MYHuzVbNPrHcxifE8/hoaH0N+j2TaGkbDwcrY5wWEmv08JFBUNknjcDKrASBgJjhRiH0tJjY6R4Eg8d3p06F5ovZyxuvHubUTZYXQQUWbef28KTXdO2WF0FBajw1YO0XHbgntUNMh48G6Tb5nrfcxxw7ytyVgp/rtWlVh0qEn+WIIiAEzBEN8nwsP9oXzJ6JAfDiijQxFxYYqgUF8TLEk8l1wBUdFh32gueaNDBkdqdOheZHOV+H2JcsHoIKLMdP/mFJLunLLD6CgsRoetHKJjd/fzKhzkW+R6t3U2LlLvSnX75feqd7DqmbsFd175IPasGFD7PLCkDyva16btVw7yGR3+aD1MK6ZWISKmD1GjQkRBAOGIhUAoikqjBkYoDisSR0zERq1RLbYHEYjExH7y71Jt4liBavUJ5WasEWY4BsMQYRIOIhIX0WHJiIiIxwwEfDNgBAIwg+KFMlwrnqdFHKcW/rAMkgBqA5XiPPwiNuwISZ6r90U2VyO/M1G2GB1ElJnu35xC0p1TdhgdhcXosJVDdNy9cKcKCPluVbrti1u6cUtnL+5b/ITSe+XD6pPJu1pXa8eXi3xGx4y6mTAidYiaQcQDFajzfR/xkJj4x6Pwheswxd8igqAF8XgLGsJhtPmnIRo2URWvRyDaKMKhRRAver5pMEWIBJrmipBpQHXAQDAqjtkUQqgmIo4RR5W/GjMqzkdldSWqDREiVgusmkthxFpQGQkjZlaivfqHqBPh4b5HJHGu3hfZXKX/7kSZMDqIKDPdvzmFpDun7DA6CovRYSuH6FjY3KWiQ65otMTbtWMmin6in7g0aqhvU+JnNdEX4xzH+rHRNd45hvoqtif28xwjh+OEtg+MjPEGhjY6ejEwxnHlPu8N/wkvfvgB/vyXL3Dq2BH8PNyItqCJiCUm+1ZUrUKEllyHQ6//CWfO/Dd8/sGHOPre69jVU48O/3fh99WIoLgXg6+/iL/84//Be58N4/3P3saBXxho+VYjGh5/AV/+p69x/LOP8Z9P/r9499AvMbPmIvxzQw2e3fe/8OmXn+Ott9/GyQ8/wRv3XY56MyDiwxCxYQp2eKjz1b3Q5sL1exNlidFBROcyRkdhMTps5RAdkvOWt3IlQ7d9wqgJ/gB6x3isd9C9Pf1eDSc2BrY7Y0bGuaMj2+O4H9vYNyQec0VGWnQkgsP93Oo4yfBIbD/6Gz+aWtphVK/C7oO7sS7YggpfBSwx+a+JBNFYF8ZdA+/h01fvQeQiC+FwPX7cfxh7rhUT+aCBumv34vjJUxja/3PUV/oww6zA7f1H8diPmvG9mx7G258dE5FowagTMVF5L1554wHUxmZj7WMn8cX7v8HVgQpUNs1DYPshPPmbf4YVaRDPEUVYhEdYhIe87EvdM6INiVyM/DkQZYvRQUTnMkZHYTE6bOUSHZITHk8ufw4RMUHVjTl7o0zaXRN/LxUCrtWE1Em+Q7PS4TGu43iiQx3De67uMfb3+6+30DzlPBEZMzGlpgrRlnpMjYlACAVRYzSj1n8pdr77X/HxEzfhAvM8zIhdhFXmIlRWTMEPQjNx9x/fwxev/Bqxtmb84IJKtLdEcF5lDfyWhYtv6cfHbx3F5qgPtb521NR+D7Ga2WicEsM9Rz7CW2/tghFtQGjK/4bKmhjWRjYgaNQgaEbsVQ7nhnV5/rqQyIXrz4EoS4wOIjqXMToKi9FhK6fokJa0dGNX10HsW3kUVzRdpR1ztlIn7jJCvJcvuVYhHN5YSIsUfXTkfhzP457oSDteUuqYoXc/wqmBR1FjVSASM2DWRsXXCGrDFuJGGNHqEGpuewZ/+egrfHB6L+73V6MqOgXxYByB+HrsfvcbvHBHENWGgYhZiabQRQiHqzDdMvH96Ytw+I/f4PPP38Kbz65DrWnCjDehfkYU5i9248OvP8abHw1i3/XN4rmiCAe/i0BlBGbAStxIbv+e+ojIlXMsouwxOojoXMboKCxGh63cokNqjXeoTxY/vPoNLGtbg3WzNuPmzrvUDeSb527BnLr52v2ypiby9qVP8tIq92qD2iYm8a4Y0K5QZIqOcR8nc3SMtZriMKavx4N/Oyai4lP86ZUHEQ9Nw3fCIiCCflhGCGFfDP97zEJjdBp+/dhxvP/VIJ4dGsBvo/XoqFiC/hP/hufvbULAH0xckhX2ISyCI2BF0FY7FzXTL8Ks8GH84diL+OjU/433f3ctKmZ/G3UVUUyva0fdfQfw8ekv8W/fnMFvlk6H5TfUW++a4bB6NyxJHxG50v/+RGNhdBBRZrp/cwpJd07ZYXQUFqPDVo7RIcl3ptrZ9bS63EpeduWQ4fFU9wvq5nPdftlJBIK8xMo7ifeGge6xbKJj/MfxXP7liQ7dcXXMmhCMi3ywdryMD784hLvEJP/CcA0MowJGQGzzN8AKT0WN0SL+B3MRGoMP4uhf/gv+cO8MEQbVuOulz/DJwL8i5AuJWAiL4IjAsmKIWLWYNq0akUgdQuLvnFEbwepd7+PDk49gg4gTf7QZYSOO+AwT8daf4oE/ncHph5ajJlQpns+AIY5jhiMiOiLq3bHC2hfaXOh/f6KxMDqIKDPdvzmFpDun7DA6CovRYSu36GiOtalVDRkb13RsUl8bok0pY+bXL1CPux/LmVzhGBwQE/yxbypPrljkGB1ZH0c85o6exGPe/VyXf9nHSV3tEKHiWhkZENvapsURrZsL3739eP/V/bg5NBOrrz+Aoff+L+x58t+hveU/YHf/HixrDqLeakWV/xGcPPkB9t9ioqa2HbG1+/HpZ2fw5rM3I258B77qANYPfI2nV52PC+7Zh5d3NKBu6nmIWwvxm6fexddv7sUlgQrsfPlZbP/3BuojMVwYW4gD7xzD0DO74A9VIxA2RXAkVjm40kHFxOggosx0/+YUku6cssPoKCxGh62coqOrdZW6iVx++F9NpFZdZiXjQn4ooHfsts67sbztbM4zsaIw6uVNcpsdCb3jWOlIjsviOCnjvBHkjY7kY+590qPkP/39f+KvX3yBMx8fxdZ6PypmRBH40ZMY+uhrvPZgM+Itq3Do1BmcOH0Kpz8+gb++8z6e2NaBaEMQoZgJwzRgbn4C733+NU6e+Su++fo/YviNA9hYfzHCv38Wx0+9i89OncDX4hivv/Yirg3VwKyox/ajX+Ktv36Mr77+El///QsMPboKsy0LF4YCqJSffC4vr1K/h+4Fdjzs35soB4wOIspM929OIenOKTuMjsJidNjKJTouabgcB1a+rFY5nMfm1Xeq6GirmZUyVvr90v1nv9pxDqv2RREMNCButiP2736A2to2fMtoQDh+Pi6e1o3pgfNR29mGiyoqYFT7UBcIojX8T2J7GGYkqFYljFAUfqsGfsOCryqAltlxVAQDmP3tdlzYEsQ0S4TE9CpEZjWiwj8VTc1i+5QfwAyej6qqahhNs+EzKvHtb18II+gTjxvi3Jx3rZJ0L7K5Sv29ibLB6CCizHT/5hSS7pyyw+goLEaHrVyiQ9447r2USt7D0dd9BJFwLGWsXOFY2b4u5TFK5TcDMCy5ahEW8RCEzydv5A4hFrYQEdutYEgQX0MRhNX9FYn7LOT9FgErBH/EhGmEYIoYCYpxcowp9vGbJmJBCy3BGtSExN+5cFQESgjVoYDYTzxfxErc/yEet0IxRIJx1JhB1BtVIoACCAeD6jM6wuozOiTdC20uUn9vomwwOogoM92/OYWkO6fsMDoKi9FhK5fokMEhL62S3zfFWpOf2aG7tIoyq/L74A+aCIoICFmCiIaweFzGhoyOqAwDOVaESFAwjKCIisQ7S5lWGGZUhoEgo8R5AVTvPBVGTDxWb0YRDcoQEVEjxhsiboIRecN54vllqITE9rAIk5j4uV5ESUyudDifRs7ooCJidBBRZrp/cwpJd07ZYXQUFqPDVi7R4USG/ETyg6tew/6VL2Fh81LtWMpsRlUlqgMGTPHCZUViiNfUIiJCI2SaiIiwiIu/L5b4agRMBPwB+HwBFR7qhU6uVsQiiIZDiEXFOLmfOKZcwYhEY+LxCGKGeB4jhIBhwpTj68Q4sY8VCoqICSIgjmua8nM54mK8hToriKjYlhIdKjy8L7K5GvmdibLF6CCizHT/5hSS7pyyw+goLEaHrVyi4+L6S7Fpzs9ww7ytWDtrM1ri7dpxlB2/CA5Dfi6G/NmyEIlEEZYrFSI6wqGQCBD5drXyZzFGfrifiAe54qH2F+NUeIjoiKgVEvHiJ0NBbAuLgFArJnKsXCER+8vVj1BUHN85phhrim1q5UTsKx+TwRGWQSKiQ24fWe3wvsjmSh6DKDeMDiLKTPdvTiHpzik7jI7CYnTYngpUpPzjuj9YqR3nVozooImVuE9DTvrlJ4ALYrJvSjIw1MRfrmqEVIjICFFECEjycbmPKSTiQO6fOMYI+7iKfB4ZG5YQsb8m4iOUDA3PvnIbo4OK5HEVHefbr4vn45B4ndSNI6LJTPdvTiHpzik7jI7CYnTYBgPTksEh/TUwJW2MF6Oj/CWiQ75o2WEgJvkqOlwT/8Q7SSWkRIcwEh3iePLnJFc4iO2jRUfiPOSxZdw4+7j2VceVY9wvsOOR+H2JcvGe/6KU18Uh/1TtOCKazHT/5hSS7pyyw+goLEaHbcA/PeUf1//P/gdWroDISwro3PSoIb461H/rhJ2u73UeTXssdf9dftf3SYnnTKh0fa8b63DvQ1QYcoXjbREc/6v6gpTXxY98jA4i8tKFQKmSVy2E1SXThmEwOgqM0WG7PGSKf1SdywjcdI8REU0+t5g+7esnEU1musl9qWJ0FBOjw2VfIPWmSSIiSviQl1YRUUnSxcVoGB3FxOjwOBhIvaGciGiyOxa4CDWa10siouLTxcVoGB3FxOjQuNYM4FPfFEVe16y75nm89oUj+FPD5fhy1mZ8Pfunyom21ThaMwe7xfN6xw/EZ6oxf6zvTNtGRJQPLwSmJ18D7zEyv304EVHx6OJiNIyOYmJ0FNCi5uXo6z6iPtxP2ta5PatPEpcfArh3xYvabURERESTly4uRsPoKCZGR4Gsn31dMjZ2LNolAmSZdpxO/4pBPNp1SLuNiIiIaPLSxcVoGB3FxOgogN8ufjwZHFd3bNSOGc11F/9S7Xfrgh3a7URERESTly4uRsPoKCZGR55tvezOZHAsb8vtwwSbYq1qlUPuu2bmBu0YIiIiouLRTe5LFaOjmBgdebR65vpkcKzt6NGOGc2CxkV4ZOk+te8dV/xOO4aIiIiouHST+1LF6CgmRkce3bbgHhUNMh682zpq56Y95rhh3tZkrNx4ya3aMURERETFp5vclypGRzExOvJod/fzKhx+ddkdads6Gxepd6W6/fJ71TtY9czdgjuvfBB7VgyofR5Y0ocV7WvT9iMiIiIqHbrJfalidBQToyOP7l64UwWEfLcq3fbFLd24pbMX9y1+Qum98mHcdOnt6GpdrR2fWS8GhocxnDSAXvf27QP2Y6njhvo2uY6xCf3HEo9t7BtKjkk7lldPP4Zcxxw+1o+Nru2pxxIGe+1tiecb2TaE/h5nv7G2ERERUfHpJvelitFRTIyOPFrY3KWiQ65otMTbtWMm0sa+gZRJee+gmKi7J/8qOuTk3RUQdiyMhMfIRN8dI+pYo4ZHImIGtjs/i2MMjjxv+r5ivB0dalsyQFJ/h7G2ERERUSnQTe5LFaOjmBgdeea85a1cydBtz6vkyob75/TVArUKkYwTOzpck/0Eb1i4qHAZZRVirG32c6WutGSzjYiIiEqDbnJfqhgdxcToKAAnPJ5c/hwi4ah2zERJu4wpLTo0qxUpj4822R87AhKrGZpYkcf2XGqVtt17ntlsIyIiohKgm9yXKkZHMTE6CmRJSzd2dR3EvpVHcUXTVdoxZ8e+TyPtcqrCREdCYkxKfMhjjxUdtpFYSj+/sbYRERFRMekm96WK0VFMjI4Cao13qE8WP7z6DSxrW4N1szbj5s671A3km+duwZy6+dr9sqILiiyjI/XeiVHiYszLpDzcz5PLfmNdwjXmNiIiIioO3eS+VDE6ionRUWDynal2dj2tLreSl105ZHg81f2Cuvlct19GaZN7e+UjLTrEY5qby1NuArdXK9Iec+2nQsX5WTz3gDtSPHGTuPTKHTvi3FTkiOO6bjhPDYuxthEREVFp0E3uSxWjo5gYHQXSHGtTqxoyNq7p2KS+NkSbUsbMr1+gHnc/lovU+znEJN+7suH87MSHLXUi76x09I5cKiV5LpHyRkfK2+WmBIZrvGtMMizcz5F8PNM2IiIiKg26yX2pYnQUE6OjALpaV6mbyOWH/9VEatVlVjIu5IcCesdu67wby9uuTnt8QngjRMuJjrHu3SAiIiKSdJP7UsXoKCZGR55d0nA5Dqx8Wa1yOI/Nq+9U0dFWMytlrPT7pfvParVjTIwOIiIimlC6yX2pYnQUE6Mjz+SN495LqeQ9HH3dRxAJx1LGyhWOle3rUh6bUIwOIiIimlC6yX2pYnQUE6Mjz2RwyEur5PdNsdbkZ3boLq3KO0YHERERTSjd5L5UMTqKidGRZ05kyE8kP7jqNexf+RIWNi/VjiUiIiIqL7rJfalidBQToyPPLq6/FJvm/Aw3zNuKtbM2oyXerh1HREREVH50k/tSxegoJkYHEREREY2TbnJfqhgdxVTS0UFEREREpUw3uS8k3TmNjtFRPFzpICIiIqJx0oVAIenOaXSMjuJhdBSZ/KTy1TPX46ZLb8f9S3bj0OrXcWDVK3h82TPqZ7lNtx8RERFR8elCoJB05zQ6RkfxMDqKpKN2LrbM34Z9K4+qd7dyPL3qVfUWuw9d1Y9n1rypHnti2bNY1LxMexwiIiKi4tGFQCHpzml0jI7iYXQU2Jy6+fjVZXfg8Oo3kqHx8NK92DD7ejRG0/9cr+7YqMbceMmtaduIiIiIiksXAoWkO6fRMTqKh9FRQIual6tPIndiY1vn9qw+JFB+vsfeFS9qtxEREREVjy4ECkl3TqNjdBQPo6NA1s++LhkbOxbtyulyqf4Vg3i065B2GxEREVHx6EKgVDE6ionRUQC/Xfx4Mjjk5VK6MaNxPtH81gU7tNuJiIiIikc3uS9VjI5iYnTk2dbL7kwGx/K2q7VjRtMUa1WrHHLfNTM3aMcQERERFY9ucl+qGB3FxOjII/l2t05wrO3o0Y4ZzYLGRXhk6T617x1X/E47Zlx6+jE0PIT+Hs22MfQODmN4sFe7LXub0H9sGEN9mzTbiIiIqPzoJvelKvXcdRNjyh9GRx7dtuAeFQ0yHrzb5Fvmeh9z3DBvazJWJvxdqxgdRERENGF0k/tSlXruuokx5Q+jI492dz+vwkG+Ra53W2fjIvWuVLdffq96B6ueuVtw55UPYs+KAbXPA0v6sKJ9bdp+Z43RQURERKSdGFP+MDry6O6FO1VAyHer0m1f3NKNWzp7cd/iJ5TeKx9Wn0ze1bpaO35CMDqIiIiItBNjyh9GRx4tbO5S0SFXNFri7doxE21j3xCGh0UgKCIutnsiQxsdiRgY2W8YA9vd213RsX3ANS49XlKf3xsYmaLDex7e4/diwHXslO0p5yW4Akmdu2ub93cjIiKiyUc3Mab8YXTkmfOWt3IlQ7d9IiUm/APoTT7mTNLHig57jHsVQ41JjYPkxN01LvF8nmNpjjMyyR87OryrKRv7Bjznnbpvcrvud7KPo87xWD822vvIOGF0EBERkW5iTPnD6CgAJzyeXP4cIuGodszZS8RD2oTaOyH3/Jw2Kbd5H1dBkDYuu5WLke1jjc8tSFKoVQ53bI0Ycz8iIiKatHQTY8ofRkeBLGnpxq6ug9i38iiuaLpKO+asqJjQTLwzRIeclGsn+p7jjTZ5T3/cWV0ZkV10CMlLpLy/R2K/0VcoEttTn8umfg+5zb0SQkRERJOdbmJM+cPoKKDWeIf6ZPHDq9/AsrY1WDdrM27uvEvdQL557hbMqZuv3S8rJRAdicutxrqcKkN02JzjjMRHpuhwjARP2nMkg4bxQURERIyOQmN0FJh8Z6qdXU+ry63kZVcOGR5Pdb+gbj7X7ZeR/f/op03M1WR79OjI6fKqtOhwX9KlC4rxRUdC6uVio0WPzmi/U27PT0REROcy3cSY8ofRUSDNsTa1qiFj45qOTeprQ7QpZcz8+gXqcfdjuVAT85TVDuf/+R89OpJj3BN6TcAkjp06Yfc+nzcMnBWLUaMj5XnEtkF3KKRGhzPW/fzJG8k9N4e7o6N30P3nweggIiKiBN3EmPKH0VEAXa2r1E3k8sP/aiK16jIrGRfyQwG9Y7d13o3lbVenPZ4tJw4SxITbGxlp0SE5ceLwbh8JirTju8Z4jzPU1zv2Soc3OsS2kWOnRo97fHKMs5qRvHTK87iQer4MDiIiIkrQTYwpfxgdeXZJw+U4sPJltcrhPDavvlNFR1vNrJSx0u+X7j+r1Y402sggIiIimtx0E2PKH0ZHnskbx72XUsl7OPq6jyASjqWMlSscK9vXpTx2tka/v4GIiIho8tJNjCl/GB15JoNDXlolv2+KtSY/s0N3adXZ6h30rGjYlx2lXaZERERENMnpJsaUP4yOPHMiQ34i+cFVr2H/ypewsHmpduzZcm7cdmNwEBEREaXTTYwpfxgdeXZx/aXYNOdnuGHeVqydtRkt8XbtOCIiIiIqHN3EmPKH0UFEREREk45uYkz5w+ggIiIioklHNzGm/GF0EBEREdGko5sYU/4wOoiIiIho0tFNjCl/GB1F1hxrw+qZ63HTpbfj/iW7cWj16ziw6hU8vuwZ9bPcptuPiIiIiMZPNzGm/GF0FElH7Vxsmb8N+1YeVW+p63h61avqcz0euqofz6x5Uz32xLJnsah5mfY4RERERJQ73cSY8ofRUWBz6ubjV5fdgcOr30iGxsNL92LD7OvRGE3/c726Y6Mac+Mlt6ZtIyIiIqLx0U2MKX8YHQW0qHk5+rqPJGNjW+f2rD6ZXH6o4N4VL2q3EREREVHudBNjyh9GR4Gsn31dMjZ2LNqV0+VS/SsG8WjXIe02IiIiIsqdbmJM+cPoKIDfLn48GRzycindmNFcd/Ev1X63Ltih3U5EREREudNNjCl/GB15tvWyO5PBsbztau2Y0TTFWtUqh9x3zcwN2jFnpacfQ8ND6O8Z5WciIiKic5RuYkz5w+jII/l2t05wrO3o0Y4ZzYLGRXhk6T617x1X/E475qwxOoiIiGiS0k2MKX8YHXl024J7VDTIePBuk2+Z633MccO8rclYyeu7VjE6iIiIaJLSTYwpfxgdebS7+3kVDvItcr3bOhsXqXeluv3ye9U7WPXM3YI7r3wQe1YMqH0eWNKHFe1r0/abUIwOIiIimqR0E2PKH0ZHHt29cKcKCPluVbrti1u6cUtnL+5b/ITSe+XD6pPJu1pXa8dnpKJhGMOOY/3Y6Nq+sW9oZJuMi+2ZoqMXA2rsAHpdx0nK8Hyh7QMj2zzbewddjwsD2539NqH/mHsbI4iIiIgmnm5iTPnD6Mijhc1dKjrkikZLvF07ZuIkAiFl8j44MslPBIc7HpygGC067Mn/YK893iub53MHw8h2tc0dKCJOnOOoGHE958a+AUYHERERTTjdxJjyh9GRZ85b3sqVDN32CTPmpVHeQLB590n+bAeHd+XCbTzPZ/OGxYjE8w71bdJsIyIiIpo4uokx5Q+jowCc8Hhy+XOIhKPaMRMhecmSd0KvAkFzidQo0TGUKThsOT+fQ22X+2qiJXlJ1hj7ExEREZ0l3cSY8ofRUSBLWrqxq+sg9q08iiuartKOmRj2KoU7BnKKjmERHd5LscaSw/N5JQMjPT5G7j9hfBAREdHE002MKX8YHQXUGu9Qnyx+ePUbWNa2ButmbcbNnXepG8g3z92COXXztfuNi5rQ2xN2OybSLndSY9JXOuTPiVWMHCb87ufLcHlVqrEuqcrlOERERETZ002MKX8YHQUm35lqZ9fT6nIredmV4y4RHk91P69uPtftl5EIhgH3xD0lAnQRkZjQj34jefo+KTejZ3i+sW4k7x10n4c7OkbGJLYxOoiIiCg/dBNjyh9GR4E0x9rUqoaMjWs6NqmvDdGmlDHz6xeox92PZc1ezUhckuQNjITkPRjOdk9keKPDfemUnPh7oyPT841cIpXgrGaknod7lWPk+RwMDiIiIsoH3cSY8mfc0XHFFVcQEREREZUl3cSY8mfc0VFbW0dEREREVJZ0E2PKn5K+vIpKTzhkwbKiiEbjiEWjiEUiiETy9zbARERERPmgmxhT/jA6KCfBoGQhFIzY3wdhmqZ2LBEREVGp0k2MKX8YHZQTGRqhlOgICYwOIiIiKi+6iTHlD6ODcuOKDvl9IjqC+rFEREREJUo3Mab8YXRQblRwuKjHQ6ljiIiIiEqcbmJM+ZP36GhsTP0sCip3Tmw4dGOIiIiISptuYkz5k9fouPban+CNN97Ali1btNvHY8WKlRgaGlLk97ox0iWXXCqe+0089VSfdjuNlzs4GB1ERERUnnQTY8qfvEaHZUXwyCOP4J133pmw8Mg2Onp7e9UnWsvwuP/++1M+5dor07HIzRsdDA8iIiIqP7qJMeVP3i+vmujw+MUvfoETJ06MGQrOKod04MABDAwMqLjQrXrIbYyOXOiiQ9KNJSIiIipNuokx5U9BbiQfb3jISPCuSmQi93H2kyscMjycbe+++64KFhkucowTL4yO7MkPB9TRjSUiIiIqVbqJMeVPQaJDmqgVD+eyKScevNudVQ4nNNyXV8m4kPs52xgd4+Fd4XDoxhIRERGVJt3EmPKnYNEhucPj+uuv147JxLlUStJdLuWQceLEhBMqcrzzvfMzL6/KlS44JN1YIiIiotKkmxhT/hQ8Ou6+e4e6zOn662/QjhmLDAMZCHJ/Sa5iyJUN7zjnvg8nLtz3dDjbnH0ZHbnSBYekG0tERERUmnQTY8qfgl5e5QTHTTfdpB2TiYwGJx6cFQv51TtOhoQ7SJyx8qZy96VX8nFGR650wSHpxhIRERGVJt3EmPKnYDeSO8GxZcuN2jGZeFconHs3sgkG9yVVktzHOdYrr7zC6MiJLjgk3VgiIiKi0qSbGFO+VOP/B2wWr++ZN0BDAAAAAElFTkSuQmCC;" vertex="1" parent="1">
          <mxGeometry x="227.18" y="410" width="345.63" height="399.83" as="geometry" />
        </mxCell>
      </root>
    </mxGraphModel>
  </diagram>
</mxfile>
